ISO-10303-21;
HEADER;
/* Generated by software containing ST-Developer
 * from STEP Tools, Inc. (www.steptools.com) 
 */

FILE_DESCRIPTION(
/* description */ (''),
/* implementation_level */ '2;1');

FILE_NAME(
/* name */ '',
/* time_stamp */ '2026-09-21T11:59:47+08:00',
/* author */ (''),
/* organization */ (''),
/* preprocessor_version */ 'ST-DEVELOPER v20.2',
/* originating_system */ 'Autodesk Translation Framework v15.15.0.0',
/* authorisation */ '');

FILE_SCHEMA (('AUTOMOTIVE_DESIGN { 1 0 10303 214 3 1 1 }'));
ENDSEC;

DATA;
#10=MECHANICAL_DESIGN_GEOMETRIC_PRESENTATION_REPRESENTATION('',(#13),#1870);
#11=SHAPE_REPRESENTATION_RELATIONSHIP('SRR','None',#1877,#12);
#12=ADVANCED_BREP_SHAPE_REPRESENTATION('',(#1084),#1869);
#13=STYLED_ITEM('',(#1887),#1084);
#14=B_SPLINE_CURVE_WITH_KNOTS('',3,(#1597,#1598,#1599,#1600,#1601,#1602,
#1603,#1604,#1605,#1606,#1607,#1608,#1609,#1610,#1611,#1612,#1613,#1614,
#1615,#1616,#1617,#1618,#1619,#1620,#1621,#1622,#1623,#1624,#1625,#1626,
#1627,#1628,#1629,#1630),.UNSPECIFIED.,.F.,.F.,(4,2,2,2,2,2,2,2,2,2,2,2,
2,2,2,2,4),(-7.11109938455931,-6.74087066855904,-6.37064195255876,-6.1393482728066,
-5.90805459305443,-5.61622417469261,-5.32439375633079,-5.03256333796898,
-4.74073291960716,-4.44890250223766,-4.15707208486816,-3.86524166749866,
-3.57341125012916,-3.3421175722578,-3.11082389438644,-2.74059517986582,
-2.3703664653452),.UNSPECIFIED.);
#15=B_SPLINE_CURVE_WITH_KNOTS('',3,(#1635,#1636,#1637,#1638),
 .UNSPECIFIED.,.F.,.F.,(4,4),(-7.16988016673788,-7.11109938455931),
 .UNSPECIFIED.);
#16=B_SPLINE_CURVE_WITH_KNOTS('',3,(#1639,#1640,#1641,#1642,#1643,#1644,
#1645,#1646,#1647,#1648,#1649,#1650,#1651,#1652,#1653,#1654,#1655,#1656,
#1657,#1658,#1659,#1660,#1661,#1662,#1663,#1664,#1665,#1666,#1667,#1668,
#1669,#1670,#1671,#1672,#1673),.UNSPECIFIED.,.F.,.F.,(4,2,2,2,2,2,2,2,3,
2,2,2,2,2,2,2,4),(-2.3703664653452,-2.00013774929285,-1.6299090332405,-1.39861535271795,
-1.16732167219539,-0.875491254187443,-0.583660836179493,-0.291830418171543,
-1.63593583124566E-10,0.291830416852036,0.583660833867666,0.875491250883295,
1.16732166789892,1.39861534654067,1.62990902518242,2.00013773975511,2.31158567214508),
 .UNSPECIFIED.);
#17=ELLIPSE('',#1119,9.80022378534627,3.86921528961811);
#18=ELLIPSE('',#1130,9.8002278539551,3.8692148243994);
#19=ELLIPSE('',#1134,9.80022378534627,3.86921528961811);
#20=FACE_BOUND('',#153,.T.);
#21=FACE_BOUND('',#155,.T.);
#22=FACE_BOUND('',#156,.T.);
#23=FACE_BOUND('',#157,.T.);
#24=FACE_BOUND('',#165,.T.);
#25=FACE_BOUND('',#168,.T.);
#26=FACE_BOUND('',#169,.T.);
#27=FACE_BOUND('',#170,.T.);
#28=FACE_BOUND('',#174,.T.);
#29=FACE_BOUND('',#192,.T.);
#30=FACE_BOUND('',#198,.T.);
#31=FACE_BOUND('',#201,.T.);
#32=FACE_BOUND('',#218,.T.);
#33=CYLINDRICAL_SURFACE('',#1103,2.79999899864197);
#34=CYLINDRICAL_SURFACE('',#1114,6.50000013709277);
#35=CYLINDRICAL_SURFACE('',#1135,1.3999998465058);
#36=CYLINDRICAL_SURFACE('',#1137,1.39999974422466);
#37=CYLINDRICAL_SURFACE('',#1139,1.39999988343478);
#38=CYLINDRICAL_SURFACE('',#1141,1.90000003541293);
#39=CYLINDRICAL_SURFACE('',#1143,2.79999899864197);
#40=CYLINDRICAL_SURFACE('',#1158,2.99999988929801);
#41=ORIENTED_CLOSED_SHELL('',*,#1082,.F.);
#42=PLANE('',#1101);
#43=PLANE('',#1102);
#44=PLANE('',#1106);
#45=PLANE('',#1109);
#46=PLANE('',#1113);
#47=PLANE('',#1145);
#48=PLANE('',#1146);
#49=PLANE('',#1148);
#50=PLANE('',#1149);
#51=PLANE('',#1150);
#52=PLANE('',#1151);
#53=PLANE('',#1152);
#54=PLANE('',#1153);
#55=PLANE('',#1154);
#56=PLANE('',#1155);
#57=PLANE('',#1156);
#58=PLANE('',#1157);
#59=PLANE('',#1160);
#60=PLANE('',#1161);
#61=PLANE('',#1162);
#62=PLANE('',#1163);
#63=PLANE('',#1164);
#64=PLANE('',#1165);
#65=PLANE('',#1166);
#66=PLANE('',#1167);
#67=PLANE('',#1168);
#68=PLANE('',#1169);
#69=PLANE('',#1170);
#70=PLANE('',#1171);
#71=PLANE('',#1172);
#72=PLANE('',#1173);
#73=PLANE('',#1174);
#74=PLANE('',#1175);
#75=PLANE('',#1176);
#76=PLANE('',#1177);
#77=PLANE('',#1178);
#78=PLANE('',#1179);
#79=PLANE('',#1180);
#80=PLANE('',#1181);
#81=PLANE('',#1182);
#82=PLANE('',#1183);
#83=PLANE('',#1184);
#84=PLANE('',#1185);
#85=PLANE('',#1186);
#86=PLANE('',#1187);
#87=PLANE('',#1188);
#88=PLANE('',#1189);
#89=PLANE('',#1190);
#90=FACE_OUTER_BOUND('',#148,.T.);
#91=FACE_OUTER_BOUND('',#149,.T.);
#92=FACE_OUTER_BOUND('',#150,.T.);
#93=FACE_OUTER_BOUND('',#151,.T.);
#94=FACE_OUTER_BOUND('',#152,.T.);
#95=FACE_OUTER_BOUND('',#154,.T.);
#96=FACE_OUTER_BOUND('',#158,.T.);
#97=FACE_OUTER_BOUND('',#159,.T.);
#98=FACE_OUTER_BOUND('',#160,.T.);
#99=FACE_OUTER_BOUND('',#161,.T.);
#100=FACE_OUTER_BOUND('',#162,.T.);
#101=FACE_OUTER_BOUND('',#163,.T.);
#102=FACE_OUTER_BOUND('',#164,.T.);
#103=FACE_OUTER_BOUND('',#166,.T.);
#104=FACE_OUTER_BOUND('',#167,.T.);
#105=FACE_OUTER_BOUND('',#171,.T.);
#106=FACE_OUTER_BOUND('',#172,.T.);
#107=FACE_OUTER_BOUND('',#173,.T.);
#108=FACE_OUTER_BOUND('',#175,.T.);
#109=FACE_OUTER_BOUND('',#176,.T.);
#110=FACE_OUTER_BOUND('',#177,.T.);
#111=FACE_OUTER_BOUND('',#178,.T.);
#112=FACE_OUTER_BOUND('',#179,.T.);
#113=FACE_OUTER_BOUND('',#180,.T.);
#114=FACE_OUTER_BOUND('',#181,.T.);
#115=FACE_OUTER_BOUND('',#182,.T.);
#116=FACE_OUTER_BOUND('',#183,.T.);
#117=FACE_OUTER_BOUND('',#184,.T.);
#118=FACE_OUTER_BOUND('',#185,.T.);
#119=FACE_OUTER_BOUND('',#186,.T.);
#120=FACE_OUTER_BOUND('',#187,.T.);
#121=FACE_OUTER_BOUND('',#188,.T.);
#122=FACE_OUTER_BOUND('',#189,.T.);
#123=FACE_OUTER_BOUND('',#190,.T.);
#124=FACE_OUTER_BOUND('',#191,.T.);
#125=FACE_OUTER_BOUND('',#193,.T.);
#126=FACE_OUTER_BOUND('',#194,.T.);
#127=FACE_OUTER_BOUND('',#195,.T.);
#128=FACE_OUTER_BOUND('',#196,.T.);
#129=FACE_OUTER_BOUND('',#197,.T.);
#130=FACE_OUTER_BOUND('',#199,.T.);
#131=FACE_OUTER_BOUND('',#200,.T.);
#132=FACE_OUTER_BOUND('',#202,.T.);
#133=FACE_OUTER_BOUND('',#203,.T.);
#134=FACE_OUTER_BOUND('',#204,.T.);
#135=FACE_OUTER_BOUND('',#205,.T.);
#136=FACE_OUTER_BOUND('',#206,.T.);
#137=FACE_OUTER_BOUND('',#207,.T.);
#138=FACE_OUTER_BOUND('',#208,.T.);
#139=FACE_OUTER_BOUND('',#209,.T.);
#140=FACE_OUTER_BOUND('',#210,.T.);
#141=FACE_OUTER_BOUND('',#211,.T.);
#142=FACE_OUTER_BOUND('',#212,.T.);
#143=FACE_OUTER_BOUND('',#213,.T.);
#144=FACE_OUTER_BOUND('',#214,.T.);
#145=FACE_OUTER_BOUND('',#215,.T.);
#146=FACE_OUTER_BOUND('',#216,.T.);
#147=FACE_OUTER_BOUND('',#217,.T.);
#148=EDGE_LOOP('',(#722,#723,#724,#725));
#149=EDGE_LOOP('',(#726));
#150=EDGE_LOOP('',(#727));
#151=EDGE_LOOP('',(#728,#729,#730,#731));
#152=EDGE_LOOP('',(#732,#733,#734,#735,#736,#737,#738,#739,#740,#741));
#153=EDGE_LOOP('',(#742));
#154=EDGE_LOOP('',(#743,#744,#745,#746));
#155=EDGE_LOOP('',(#747));
#156=EDGE_LOOP('',(#748));
#157=EDGE_LOOP('',(#749));
#158=EDGE_LOOP('',(#750,#751,#752,#753));
#159=EDGE_LOOP('',(#754,#755,#756,#757));
#160=EDGE_LOOP('',(#758,#759,#760,#761,#762,#763,#764,#765,#766,#767,#768,
#769,#770,#771,#772,#773,#774,#775,#776));
#161=EDGE_LOOP('',(#777,#778,#779,#780));
#162=EDGE_LOOP('',(#781,#782,#783,#784));
#163=EDGE_LOOP('',(#785,#786,#787,#788,#789,#790,#791,#792,#793));
#164=EDGE_LOOP('',(#794,#795,#796,#797));
#165=EDGE_LOOP('',(#798,#799,#800));
#166=EDGE_LOOP('',(#801,#802,#803,#804));
#167=EDGE_LOOP('',(#805,#806,#807,#808));
#168=EDGE_LOOP('',(#809));
#169=EDGE_LOOP('',(#810));
#170=EDGE_LOOP('',(#811));
#171=EDGE_LOOP('',(#812));
#172=EDGE_LOOP('',(#813,#814,#815,#816));
#173=EDGE_LOOP('',(#817,#818,#819,#820,#821,#822,#823,#824));
#174=EDGE_LOOP('',(#825));
#175=EDGE_LOOP('',(#826,#827,#828,#829));
#176=EDGE_LOOP('',(#830,#831,#832,#833));
#177=EDGE_LOOP('',(#834,#835,#836,#837));
#178=EDGE_LOOP('',(#838,#839,#840,#841));
#179=EDGE_LOOP('',(#842,#843,#844,#845,#846));
#180=EDGE_LOOP('',(#847,#848,#849,#850));
#181=EDGE_LOOP('',(#851,#852,#853,#854));
#182=EDGE_LOOP('',(#855,#856,#857,#858));
#183=EDGE_LOOP('',(#859,#860,#861,#862));
#184=EDGE_LOOP('',(#863,#864,#865,#866));
#185=EDGE_LOOP('',(#867,#868,#869,#870,#871));
#186=EDGE_LOOP('',(#872,#873,#874,#875));
#187=EDGE_LOOP('',(#876,#877,#878,#879,#880,#881,#882,#883));
#188=EDGE_LOOP('',(#884,#885,#886,#887));
#189=EDGE_LOOP('',(#888,#889,#890,#891,#892));
#190=EDGE_LOOP('',(#893,#894,#895,#896,#897));
#191=EDGE_LOOP('',(#898,#899,#900,#901,#902,#903,#904,#905,#906,#907,#908,
#909,#910));
#192=EDGE_LOOP('',(#911,#912,#913,#914));
#193=EDGE_LOOP('',(#915,#916,#917,#918));
#194=EDGE_LOOP('',(#919,#920,#921,#922));
#195=EDGE_LOOP('',(#923,#924,#925,#926,#927,#928,#929,#930));
#196=EDGE_LOOP('',(#931,#932,#933,#934));
#197=EDGE_LOOP('',(#935,#936,#937,#938,#939,#940,#941,#942,#943,#944,#945,
#946));
#198=EDGE_LOOP('',(#947,#948,#949,#950));
#199=EDGE_LOOP('',(#951,#952,#953,#954));
#200=EDGE_LOOP('',(#955));
#201=EDGE_LOOP('',(#956));
#202=EDGE_LOOP('',(#957,#958,#959));
#203=EDGE_LOOP('',(#960,#961,#962,#963,#964));
#204=EDGE_LOOP('',(#965,#966,#967));
#205=EDGE_LOOP('',(#968,#969,#970));
#206=EDGE_LOOP('',(#971,#972,#973,#974,#975));
#207=EDGE_LOOP('',(#976,#977,#978));
#208=EDGE_LOOP('',(#979,#980,#981,#982,#983,#984,#985));
#209=EDGE_LOOP('',(#986,#987,#988));
#210=EDGE_LOOP('',(#989,#990,#991,#992,#993));
#211=EDGE_LOOP('',(#994,#995,#996));
#212=EDGE_LOOP('',(#997,#998,#999,#1000,#1001,#1002));
#213=EDGE_LOOP('',(#1003,#1004,#1005));
#214=EDGE_LOOP('',(#1006,#1007,#1008,#1009,#1010));
#215=EDGE_LOOP('',(#1011,#1012,#1013));
#216=EDGE_LOOP('',(#1014,#1015,#1016,#1017,#1018,#1019));
#217=EDGE_LOOP('',(#1020));
#218=EDGE_LOOP('',(#1021));
#219=LINE('',#1496,#331);
#220=LINE('',#1505,#332);
#221=LINE('',#1508,#333);
#222=LINE('',#1511,#334);
#223=LINE('',#1513,#335);
#224=LINE('',#1515,#336);
#225=LINE('',#1517,#337);
#226=LINE('',#1519,#338);
#227=LINE('',#1521,#339);
#228=LINE('',#1523,#340);
#229=LINE('',#1526,#341);
#230=LINE('',#1531,#342);
#231=LINE('',#1532,#343);
#232=LINE('',#1541,#344);
#233=LINE('',#1542,#345);
#234=LINE('',#1547,#346);
#235=LINE('',#1553,#347);
#236=LINE('',#1587,#348);
#237=LINE('',#1591,#349);
#238=LINE('',#1595,#350);
#239=LINE('',#1632,#351);
#240=LINE('',#1677,#352);
#241=LINE('',#1681,#353);
#242=LINE('',#1684,#354);
#243=LINE('',#1685,#355);
#244=LINE('',#1691,#356);
#245=LINE('',#1692,#357);
#246=LINE('',#1695,#358);
#247=LINE('',#1696,#359);
#248=LINE('',#1700,#360);
#249=LINE('',#1702,#361);
#250=LINE('',#1704,#362);
#251=LINE('',#1705,#363);
#252=LINE('',#1708,#364);
#253=LINE('',#1710,#365);
#254=LINE('',#1711,#366);
#255=LINE('',#1715,#367);
#256=LINE('',#1716,#368);
#257=LINE('',#1717,#369);
#258=LINE('',#1719,#370);
#259=LINE('',#1720,#371);
#260=LINE('',#1724,#372);
#261=LINE('',#1726,#373);
#262=LINE('',#1727,#374);
#263=LINE('',#1728,#375);
#264=LINE('',#1732,#376);
#265=LINE('',#1734,#377);
#266=LINE('',#1736,#378);
#267=LINE('',#1737,#379);
#268=LINE('',#1739,#380);
#269=LINE('',#1740,#381);
#270=LINE('',#1742,#382);
#271=LINE('',#1745,#383);
#272=LINE('',#1750,#384);
#273=LINE('',#1752,#385);
#274=LINE('',#1753,#386);
#275=LINE('',#1754,#387);
#276=LINE('',#1756,#388);
#277=LINE('',#1758,#389);
#278=LINE('',#1760,#390);
#279=LINE('',#1761,#391);
#280=LINE('',#1763,#392);
#281=LINE('',#1765,#393);
#282=LINE('',#1766,#394);
#283=LINE('',#1769,#395);
#284=LINE('',#1771,#396);
#285=LINE('',#1772,#397);
#286=LINE('',#1773,#398);
#287=LINE('',#1777,#399);
#288=LINE('',#1779,#400);
#289=LINE('',#1781,#401);
#290=LINE('',#1782,#402);
#291=LINE('',#1785,#403);
#292=LINE('',#1787,#404);
#293=LINE('',#1788,#405);
#294=LINE('',#1789,#406);
#295=LINE('',#1792,#407);
#296=LINE('',#1794,#408);
#297=LINE('',#1795,#409);
#298=LINE('',#1796,#410);
#299=LINE('',#1798,#411);
#300=LINE('',#1800,#412);
#301=LINE('',#1801,#413);
#302=LINE('',#1804,#414);
#303=LINE('',#1806,#415);
#304=LINE('',#1808,#416);
#305=LINE('',#1809,#417);
#306=LINE('',#1813,#418);
#307=LINE('',#1815,#419);
#308=LINE('',#1816,#420);
#309=LINE('',#1817,#421);
#310=LINE('',#1820,#422);
#311=LINE('',#1821,#423);
#312=LINE('',#1822,#424);
#313=LINE('',#1823,#425);
#314=LINE('',#1827,#426);
#315=LINE('',#1829,#427);
#316=LINE('',#1830,#428);
#317=LINE('',#1831,#429);
#318=LINE('',#1833,#430);
#319=LINE('',#1835,#431);
#320=LINE('',#1837,#432);
#321=LINE('',#1838,#433);
#322=LINE('',#1841,#434);
#323=LINE('',#1842,#435);
#324=LINE('',#1843,#436);
#325=LINE('',#1846,#437);
#326=LINE('',#1852,#438);
#327=LINE('',#1854,#439);
#328=LINE('',#1858,#440);
#329=LINE('',#1860,#441);
#330=LINE('',#1864,#442);
#331=VECTOR('',#1197,2.50000044286602);
#332=VECTOR('',#1208,1.);
#333=VECTOR('',#1211,1.);
#334=VECTOR('',#1214,1.);
#335=VECTOR('',#1215,1.);
#336=VECTOR('',#1216,1.);
#337=VECTOR('',#1217,1.);
#338=VECTOR('',#1218,1.);
#339=VECTOR('',#1219,1.);
#340=VECTOR('',#1220,1.);
#341=VECTOR('',#1223,1.);
#342=VECTOR('',#1228,1.);
#343=VECTOR('',#1229,1.);
#344=VECTOR('',#1238,1.);
#345=VECTOR('',#1239,1.);
#346=VECTOR('',#1244,6.50000013709277);
#347=VECTOR('',#1251,7.49144511561125);
#348=VECTOR('',#1286,1.3999998465058);
#349=VECTOR('',#1291,1.39999974422466);
#350=VECTOR('',#1296,1.39999988343478);
#351=VECTOR('',#1297,1.39999988343478);
#352=VECTOR('',#1304,1.90000003541293);
#353=VECTOR('',#1309,1.);
#354=VECTOR('',#1312,1.);
#355=VECTOR('',#1313,1.);
#356=VECTOR('',#1320,1.);
#357=VECTOR('',#1321,1.);
#358=VECTOR('',#1324,1.);
#359=VECTOR('',#1325,1.);
#360=VECTOR('',#1328,1.);
#361=VECTOR('',#1329,1.);
#362=VECTOR('',#1330,1.);
#363=VECTOR('',#1331,1.);
#364=VECTOR('',#1334,1.);
#365=VECTOR('',#1335,1.);
#366=VECTOR('',#1336,1.);
#367=VECTOR('',#1339,1.);
#368=VECTOR('',#1340,1.);
#369=VECTOR('',#1341,1.);
#370=VECTOR('',#1344,1.);
#371=VECTOR('',#1345,1.);
#372=VECTOR('',#1348,1.);
#373=VECTOR('',#1349,1.);
#374=VECTOR('',#1350,1.);
#375=VECTOR('',#1351,1.);
#376=VECTOR('',#1354,1.);
#377=VECTOR('',#1355,1.);
#378=VECTOR('',#1356,1.);
#379=VECTOR('',#1357,1.);
#380=VECTOR('',#1360,1.);
#381=VECTOR('',#1361,1.);
#382=VECTOR('',#1364,1.);
#383=VECTOR('',#1367,2.99999988929801);
#384=VECTOR('',#1372,1.);
#385=VECTOR('',#1373,1.);
#386=VECTOR('',#1374,1.);
#387=VECTOR('',#1375,1.);
#388=VECTOR('',#1378,1.);
#389=VECTOR('',#1379,1.);
#390=VECTOR('',#1380,1.);
#391=VECTOR('',#1381,1.);
#392=VECTOR('',#1384,1.);
#393=VECTOR('',#1385,1.);
#394=VECTOR('',#1386,1.);
#395=VECTOR('',#1389,1.);
#396=VECTOR('',#1390,1.);
#397=VECTOR('',#1391,1.);
#398=VECTOR('',#1392,1.);
#399=VECTOR('',#1395,1.);
#400=VECTOR('',#1396,1.);
#401=VECTOR('',#1397,1.);
#402=VECTOR('',#1398,1.);
#403=VECTOR('',#1401,1.);
#404=VECTOR('',#1402,1.);
#405=VECTOR('',#1403,1.);
#406=VECTOR('',#1404,1.);
#407=VECTOR('',#1407,1.);
#408=VECTOR('',#1408,1.);
#409=VECTOR('',#1409,1.);
#410=VECTOR('',#1410,1.);
#411=VECTOR('',#1413,1.);
#412=VECTOR('',#1414,1.);
#413=VECTOR('',#1415,1.);
#414=VECTOR('',#1418,1.);
#415=VECTOR('',#1419,1.);
#416=VECTOR('',#1420,1.);
#417=VECTOR('',#1421,1.);
#418=VECTOR('',#1424,1.);
#419=VECTOR('',#1425,1.);
#420=VECTOR('',#1426,1.);
#421=VECTOR('',#1427,1.);
#422=VECTOR('',#1430,1.);
#423=VECTOR('',#1431,1.);
#424=VECTOR('',#1432,1.);
#425=VECTOR('',#1433,1.);
#426=VECTOR('',#1436,1.);
#427=VECTOR('',#1437,1.);
#428=VECTOR('',#1438,1.);
#429=VECTOR('',#1439,1.);
#430=VECTOR('',#1442,1.);
#431=VECTOR('',#1443,1.);
#432=VECTOR('',#1444,1.);
#433=VECTOR('',#1445,1.);
#434=VECTOR('',#1448,1.);
#435=VECTOR('',#1449,1.);
#436=VECTOR('',#1450,1.);
#437=VECTOR('',#1455,1.);
#438=VECTOR('',#1466,1.);
#439=VECTOR('',#1469,1.);
#440=VECTOR('',#1476,1.);
#441=VECTOR('',#1479,1.);
#442=VECTOR('',#1486,1.);
#443=CIRCLE('',#1099,0.499999908154024);
#444=CIRCLE('',#1100,2.50000000612582);
#445=CIRCLE('',#1104,2.79999899864197);
#446=CIRCLE('',#1105,2.79999899864197);
#447=CIRCLE('',#1107,2.79999899864197);
#448=CIRCLE('',#1108,1.90000003541293);
#449=CIRCLE('',#1110,1.3999998465058);
#450=CIRCLE('',#1111,1.39999974422466);
#451=CIRCLE('',#1112,1.39999988343478);
#452=CIRCLE('',#1115,6.50000013709277);
#453=CIRCLE('',#1116,6.50000013709277);
#454=CIRCLE('',#1118,6.17754767089772);
#455=CIRCLE('',#1120,5.73673024040296);
#456=CIRCLE('',#1121,5.73673024040296);
#457=CIRCLE('',#1122,5.73673024040296);
#458=CIRCLE('',#1123,5.73673024040296);
#459=CIRCLE('',#1124,5.73673024040296);
#460=CIRCLE('',#1125,5.73673024040296);
#461=CIRCLE('',#1126,5.73673024040296);
#462=CIRCLE('',#1127,5.73673024040296);
#463=CIRCLE('',#1128,5.73673024040296);
#464=CIRCLE('',#1129,5.73673024040296);
#465=CIRCLE('',#1131,5.73673024040296);
#466=CIRCLE('',#1132,5.73673024040296);
#467=CIRCLE('',#1133,5.73673024040296);
#468=CIRCLE('',#1136,1.3999998465058);
#469=CIRCLE('',#1138,1.39999974422466);
#470=CIRCLE('',#1140,1.39999988343478);
#471=CIRCLE('',#1142,1.90000003541293);
#472=CIRCLE('',#1144,2.79999899864197);
#473=CIRCLE('',#1147,2.99999988929801);
#474=CIRCLE('',#1159,2.99999988929801);
#475=VERTEX_POINT('',#1493);
#476=VERTEX_POINT('',#1495);
#477=VERTEX_POINT('',#1501);
#478=VERTEX_POINT('',#1502);
#479=VERTEX_POINT('',#1504);
#480=VERTEX_POINT('',#1506);
#481=VERTEX_POINT('',#1510);
#482=VERTEX_POINT('',#1512);
#483=VERTEX_POINT('',#1514);
#484=VERTEX_POINT('',#1516);
#485=VERTEX_POINT('',#1518);
#486=VERTEX_POINT('',#1520);
#487=VERTEX_POINT('',#1522);
#488=VERTEX_POINT('',#1524);
#489=VERTEX_POINT('',#1527);
#490=VERTEX_POINT('',#1530);
#491=VERTEX_POINT('',#1533);
#492=VERTEX_POINT('',#1535);
#493=VERTEX_POINT('',#1537);
#494=VERTEX_POINT('',#1540);
#495=VERTEX_POINT('',#1544);
#496=VERTEX_POINT('',#1546);
#497=VERTEX_POINT('',#1550);
#498=VERTEX_POINT('',#1552);
#499=VERTEX_POINT('',#1554);
#500=VERTEX_POINT('',#1556);
#501=VERTEX_POINT('',#1558);
#502=VERTEX_POINT('',#1560);
#503=VERTEX_POINT('',#1562);
#504=VERTEX_POINT('',#1564);
#505=VERTEX_POINT('',#1566);
#506=VERTEX_POINT('',#1568);
#507=VERTEX_POINT('',#1570);
#508=VERTEX_POINT('',#1572);
#509=VERTEX_POINT('',#1574);
#510=VERTEX_POINT('',#1576);
#511=VERTEX_POINT('',#1578);
#512=VERTEX_POINT('',#1580);
#513=VERTEX_POINT('',#1582);
#514=VERTEX_POINT('',#1586);
#515=VERTEX_POINT('',#1590);
#516=VERTEX_POINT('',#1594);
#517=VERTEX_POINT('',#1596);
#518=VERTEX_POINT('',#1631);
#519=VERTEX_POINT('',#1634);
#520=VERTEX_POINT('',#1675);
#521=VERTEX_POINT('',#1679);
#522=VERTEX_POINT('',#1683);
#523=VERTEX_POINT('',#1687);
#524=VERTEX_POINT('',#1690);
#525=VERTEX_POINT('',#1694);
#526=VERTEX_POINT('',#1698);
#527=VERTEX_POINT('',#1699);
#528=VERTEX_POINT('',#1701);
#529=VERTEX_POINT('',#1703);
#530=VERTEX_POINT('',#1707);
#531=VERTEX_POINT('',#1709);
#532=VERTEX_POINT('',#1713);
#533=VERTEX_POINT('',#1714);
#534=VERTEX_POINT('',#1722);
#535=VERTEX_POINT('',#1723);
#536=VERTEX_POINT('',#1725);
#537=VERTEX_POINT('',#1730);
#538=VERTEX_POINT('',#1731);
#539=VERTEX_POINT('',#1733);
#540=VERTEX_POINT('',#1735);
#541=VERTEX_POINT('',#1744);
#542=VERTEX_POINT('',#1748);
#543=VERTEX_POINT('',#1749);
#544=VERTEX_POINT('',#1751);
#545=VERTEX_POINT('',#1757);
#546=VERTEX_POINT('',#1759);
#547=VERTEX_POINT('',#1764);
#548=VERTEX_POINT('',#1768);
#549=VERTEX_POINT('',#1770);
#550=VERTEX_POINT('',#1775);
#551=VERTEX_POINT('',#1776);
#552=VERTEX_POINT('',#1778);
#553=VERTEX_POINT('',#1780);
#554=VERTEX_POINT('',#1784);
#555=VERTEX_POINT('',#1786);
#556=VERTEX_POINT('',#1791);
#557=VERTEX_POINT('',#1793);
#558=VERTEX_POINT('',#1799);
#559=VERTEX_POINT('',#1803);
#560=VERTEX_POINT('',#1805);
#561=VERTEX_POINT('',#1807);
#562=VERTEX_POINT('',#1811);
#563=VERTEX_POINT('',#1812);
#564=VERTEX_POINT('',#1814);
#565=VERTEX_POINT('',#1819);
#566=VERTEX_POINT('',#1825);
#567=VERTEX_POINT('',#1826);
#568=VERTEX_POINT('',#1828);
#569=VERTEX_POINT('',#1834);
#570=VERTEX_POINT('',#1836);
#571=VERTEX_POINT('',#1840);
#572=EDGE_CURVE('',#475,#475,#443,.T.);
#573=EDGE_CURVE('',#475,#476,#219,.T.);
#574=EDGE_CURVE('',#476,#476,#444,.T.);
#575=EDGE_CURVE('',#477,#478,#445,.T.);
#576=EDGE_CURVE('',#478,#479,#220,.T.);
#577=EDGE_CURVE('',#479,#480,#446,.T.);
#578=EDGE_CURVE('',#480,#477,#221,.T.);
#579=EDGE_CURVE('',#479,#481,#222,.F.);
#580=EDGE_CURVE('',#481,#482,#223,.T.);
#581=EDGE_CURVE('',#483,#482,#224,.T.);
#582=EDGE_CURVE('',#484,#483,#225,.T.);
#583=EDGE_CURVE('',#485,#484,#226,.T.);
#584=EDGE_CURVE('',#485,#486,#227,.T.);
#585=EDGE_CURVE('',#486,#487,#228,.T.);
#586=EDGE_CURVE('',#487,#488,#447,.T.);
#587=EDGE_CURVE('',#488,#480,#229,.T.);
#588=EDGE_CURVE('',#489,#489,#448,.T.);
#589=EDGE_CURVE('',#490,#478,#230,.T.);
#590=EDGE_CURVE('',#490,#481,#231,.T.);
#591=EDGE_CURVE('',#491,#491,#449,.F.);
#592=EDGE_CURVE('',#492,#492,#450,.F.);
#593=EDGE_CURVE('',#493,#493,#451,.F.);
#594=EDGE_CURVE('',#494,#488,#232,.T.);
#595=EDGE_CURVE('',#477,#494,#233,.T.);
#596=EDGE_CURVE('',#495,#495,#452,.F.);
#597=EDGE_CURVE('',#495,#496,#234,.T.);
#598=EDGE_CURVE('',#496,#496,#453,.F.);
#599=EDGE_CURVE('',#497,#497,#454,.T.);
#600=EDGE_CURVE('',#497,#498,#235,.T.);
#601=EDGE_CURVE('',#499,#498,#17,.T.);
#602=EDGE_CURVE('',#499,#500,#455,.T.);
#603=EDGE_CURVE('',#501,#500,#456,.T.);
#604=EDGE_CURVE('',#501,#502,#457,.T.);
#605=EDGE_CURVE('',#502,#503,#458,.T.);
#606=EDGE_CURVE('',#504,#503,#459,.T.);
#607=EDGE_CURVE('',#504,#505,#460,.T.);
#608=EDGE_CURVE('',#505,#506,#461,.T.);
#609=EDGE_CURVE('',#506,#507,#462,.T.);
#610=EDGE_CURVE('',#508,#507,#463,.T.);
#611=EDGE_CURVE('',#508,#509,#464,.T.);
#612=EDGE_CURVE('',#509,#510,#18,.T.);
#613=EDGE_CURVE('',#510,#511,#465,.T.);
#614=EDGE_CURVE('',#512,#511,#466,.T.);
#615=EDGE_CURVE('',#512,#513,#467,.T.);
#616=EDGE_CURVE('',#498,#513,#19,.T.);
#617=EDGE_CURVE('',#491,#514,#236,.T.);
#618=EDGE_CURVE('',#514,#514,#468,.T.);
#619=EDGE_CURVE('',#492,#515,#237,.T.);
#620=EDGE_CURVE('',#515,#515,#469,.T.);
#621=EDGE_CURVE('',#493,#516,#238,.T.);
#622=EDGE_CURVE('',#517,#516,#14,.T.);
#623=EDGE_CURVE('',#517,#518,#239,.T.);
#624=EDGE_CURVE('',#518,#518,#470,.T.);
#625=EDGE_CURVE('',#519,#517,#15,.T.);
#626=EDGE_CURVE('',#516,#519,#16,.T.);
#627=EDGE_CURVE('',#520,#520,#471,.T.);
#628=EDGE_CURVE('',#520,#489,#240,.T.);
#629=EDGE_CURVE('',#494,#521,#472,.T.);
#630=EDGE_CURVE('',#521,#487,#241,.T.);
#631=EDGE_CURVE('',#486,#522,#242,.T.);
#632=EDGE_CURVE('',#522,#521,#243,.T.);
#633=EDGE_CURVE('',#523,#523,#473,.F.);
#634=EDGE_CURVE('',#482,#524,#244,.T.);
#635=EDGE_CURVE('',#524,#490,#245,.T.);
#636=EDGE_CURVE('',#525,#522,#246,.T.);
#637=EDGE_CURVE('',#524,#525,#247,.T.);
#638=EDGE_CURVE('',#526,#527,#248,.T.);
#639=EDGE_CURVE('',#528,#526,#249,.T.);
#640=EDGE_CURVE('',#529,#528,#250,.T.);
#641=EDGE_CURVE('',#527,#529,#251,.T.);
#642=EDGE_CURVE('',#530,#526,#252,.T.);
#643=EDGE_CURVE('',#531,#530,#253,.T.);
#644=EDGE_CURVE('',#528,#531,#254,.T.);
#645=EDGE_CURVE('',#532,#533,#255,.T.);
#646=EDGE_CURVE('',#531,#532,#256,.T.);
#647=EDGE_CURVE('',#533,#530,#257,.T.);
#648=EDGE_CURVE('',#532,#529,#258,.T.);
#649=EDGE_CURVE('',#527,#533,#259,.T.);
#650=EDGE_CURVE('',#534,#535,#260,.T.);
#651=EDGE_CURVE('',#536,#534,#261,.T.);
#652=EDGE_CURVE('',#525,#536,#262,.T.);
#653=EDGE_CURVE('',#522,#535,#263,.T.);
#654=EDGE_CURVE('',#537,#538,#264,.T.);
#655=EDGE_CURVE('',#539,#537,#265,.T.);
#656=EDGE_CURVE('',#540,#539,#266,.T.);
#657=EDGE_CURVE('',#538,#540,#267,.T.);
#658=EDGE_CURVE('',#537,#483,#268,.T.);
#659=EDGE_CURVE('',#484,#538,#269,.T.);
#660=EDGE_CURVE('',#535,#485,#270,.T.);
#661=EDGE_CURVE('',#523,#541,#271,.T.);
#662=EDGE_CURVE('',#541,#541,#474,.F.);
#663=EDGE_CURVE('',#542,#543,#272,.T.);
#664=EDGE_CURVE('',#544,#542,#273,.T.);
#665=EDGE_CURVE('',#503,#544,#274,.T.);
#666=EDGE_CURVE('',#503,#543,#275,.T.);
#667=EDGE_CURVE('',#543,#502,#276,.T.);
#668=EDGE_CURVE('',#502,#545,#277,.T.);
#669=EDGE_CURVE('',#545,#546,#278,.T.);
#670=EDGE_CURVE('',#542,#546,#279,.T.);
#671=EDGE_CURVE('',#545,#501,#280,.T.);
#672=EDGE_CURVE('',#547,#501,#281,.T.);
#673=EDGE_CURVE('',#546,#547,#282,.T.);
#674=EDGE_CURVE('',#544,#548,#283,.T.);
#675=EDGE_CURVE('',#549,#547,#284,.T.);
#676=EDGE_CURVE('',#536,#549,#285,.T.);
#677=EDGE_CURVE('',#548,#534,#286,.T.);
#678=EDGE_CURVE('',#550,#551,#287,.T.);
#679=EDGE_CURVE('',#552,#550,#288,.T.);
#680=EDGE_CURVE('',#553,#552,#289,.T.);
#681=EDGE_CURVE('',#551,#553,#290,.T.);
#682=EDGE_CURVE('',#500,#554,#291,.T.);
#683=EDGE_CURVE('',#500,#555,#292,.T.);
#684=EDGE_CURVE('',#550,#555,#293,.T.);
#685=EDGE_CURVE('',#554,#551,#294,.T.);
#686=EDGE_CURVE('',#553,#556,#295,.T.);
#687=EDGE_CURVE('',#557,#552,#296,.T.);
#688=EDGE_CURVE('',#557,#512,#297,.T.);
#689=EDGE_CURVE('',#556,#512,#298,.T.);
#690=EDGE_CURVE('',#554,#549,#299,.T.);
#691=EDGE_CURVE('',#558,#556,#300,.T.);
#692=EDGE_CURVE('',#558,#539,#301,.T.);
#693=EDGE_CURVE('',#511,#559,#302,.T.);
#694=EDGE_CURVE('',#511,#560,#303,.T.);
#695=EDGE_CURVE('',#561,#560,#304,.T.);
#696=EDGE_CURVE('',#559,#561,#305,.T.);
#697=EDGE_CURVE('',#562,#563,#306,.T.);
#698=EDGE_CURVE('',#564,#562,#307,.T.);
#699=EDGE_CURVE('',#564,#508,#308,.T.);
#700=EDGE_CURVE('',#563,#508,#309,.T.);
#701=EDGE_CURVE('',#565,#540,#310,.T.);
#702=EDGE_CURVE('',#559,#558,#311,.T.);
#703=EDGE_CURVE('',#561,#562,#312,.T.);
#704=EDGE_CURVE('',#565,#563,#313,.T.);
#705=EDGE_CURVE('',#566,#567,#314,.T.);
#706=EDGE_CURVE('',#568,#566,#315,.T.);
#707=EDGE_CURVE('',#507,#568,#316,.T.);
#708=EDGE_CURVE('',#507,#567,#317,.T.);
#709=EDGE_CURVE('',#568,#565,#318,.T.);
#710=EDGE_CURVE('',#566,#569,#319,.T.);
#711=EDGE_CURVE('',#569,#570,#320,.T.);
#712=EDGE_CURVE('',#548,#570,#321,.T.);
#713=EDGE_CURVE('',#571,#504,#322,.T.);
#714=EDGE_CURVE('',#570,#504,#323,.T.);
#715=EDGE_CURVE('',#571,#569,#324,.T.);
#716=EDGE_CURVE('',#505,#571,#325,.T.);
#717=EDGE_CURVE('',#555,#499,#326,.T.);
#718=EDGE_CURVE('',#513,#557,#327,.T.);
#719=EDGE_CURVE('',#560,#510,#328,.T.);
#720=EDGE_CURVE('',#509,#564,#329,.T.);
#721=EDGE_CURVE('',#567,#506,#330,.T.);
#722=ORIENTED_EDGE('',*,*,#572,.F.);
#723=ORIENTED_EDGE('',*,*,#573,.T.);
#724=ORIENTED_EDGE('',*,*,#574,.F.);
#725=ORIENTED_EDGE('',*,*,#573,.F.);
#726=ORIENTED_EDGE('',*,*,#574,.T.);
#727=ORIENTED_EDGE('',*,*,#572,.T.);
#728=ORIENTED_EDGE('',*,*,#575,.T.);
#729=ORIENTED_EDGE('',*,*,#576,.T.);
#730=ORIENTED_EDGE('',*,*,#577,.T.);
#731=ORIENTED_EDGE('',*,*,#578,.T.);
#732=ORIENTED_EDGE('',*,*,#577,.F.);
#733=ORIENTED_EDGE('',*,*,#579,.T.);
#734=ORIENTED_EDGE('',*,*,#580,.T.);
#735=ORIENTED_EDGE('',*,*,#581,.F.);
#736=ORIENTED_EDGE('',*,*,#582,.F.);
#737=ORIENTED_EDGE('',*,*,#583,.F.);
#738=ORIENTED_EDGE('',*,*,#584,.T.);
#739=ORIENTED_EDGE('',*,*,#585,.T.);
#740=ORIENTED_EDGE('',*,*,#586,.T.);
#741=ORIENTED_EDGE('',*,*,#587,.T.);
#742=ORIENTED_EDGE('',*,*,#588,.T.);
#743=ORIENTED_EDGE('',*,*,#576,.F.);
#744=ORIENTED_EDGE('',*,*,#589,.F.);
#745=ORIENTED_EDGE('',*,*,#590,.T.);
#746=ORIENTED_EDGE('',*,*,#579,.F.);
#747=ORIENTED_EDGE('',*,*,#591,.T.);
#748=ORIENTED_EDGE('',*,*,#592,.T.);
#749=ORIENTED_EDGE('',*,*,#593,.T.);
#750=ORIENTED_EDGE('',*,*,#578,.F.);
#751=ORIENTED_EDGE('',*,*,#587,.F.);
#752=ORIENTED_EDGE('',*,*,#594,.F.);
#753=ORIENTED_EDGE('',*,*,#595,.F.);
#754=ORIENTED_EDGE('',*,*,#596,.F.);
#755=ORIENTED_EDGE('',*,*,#597,.T.);
#756=ORIENTED_EDGE('',*,*,#598,.T.);
#757=ORIENTED_EDGE('',*,*,#597,.F.);
#758=ORIENTED_EDGE('',*,*,#599,.T.);
#759=ORIENTED_EDGE('',*,*,#600,.T.);
#760=ORIENTED_EDGE('',*,*,#601,.F.);
#761=ORIENTED_EDGE('',*,*,#602,.T.);
#762=ORIENTED_EDGE('',*,*,#603,.F.);
#763=ORIENTED_EDGE('',*,*,#604,.T.);
#764=ORIENTED_EDGE('',*,*,#605,.T.);
#765=ORIENTED_EDGE('',*,*,#606,.F.);
#766=ORIENTED_EDGE('',*,*,#607,.T.);
#767=ORIENTED_EDGE('',*,*,#608,.T.);
#768=ORIENTED_EDGE('',*,*,#609,.T.);
#769=ORIENTED_EDGE('',*,*,#610,.F.);
#770=ORIENTED_EDGE('',*,*,#611,.T.);
#771=ORIENTED_EDGE('',*,*,#612,.T.);
#772=ORIENTED_EDGE('',*,*,#613,.T.);
#773=ORIENTED_EDGE('',*,*,#614,.F.);
#774=ORIENTED_EDGE('',*,*,#615,.T.);
#775=ORIENTED_EDGE('',*,*,#616,.F.);
#776=ORIENTED_EDGE('',*,*,#600,.F.);
#777=ORIENTED_EDGE('',*,*,#591,.F.);
#778=ORIENTED_EDGE('',*,*,#617,.T.);
#779=ORIENTED_EDGE('',*,*,#618,.F.);
#780=ORIENTED_EDGE('',*,*,#617,.F.);
#781=ORIENTED_EDGE('',*,*,#592,.F.);
#782=ORIENTED_EDGE('',*,*,#619,.T.);
#783=ORIENTED_EDGE('',*,*,#620,.F.);
#784=ORIENTED_EDGE('',*,*,#619,.F.);
#785=ORIENTED_EDGE('',*,*,#593,.F.);
#786=ORIENTED_EDGE('',*,*,#621,.T.);
#787=ORIENTED_EDGE('',*,*,#622,.F.);
#788=ORIENTED_EDGE('',*,*,#623,.T.);
#789=ORIENTED_EDGE('',*,*,#624,.F.);
#790=ORIENTED_EDGE('',*,*,#623,.F.);
#791=ORIENTED_EDGE('',*,*,#625,.F.);
#792=ORIENTED_EDGE('',*,*,#626,.F.);
#793=ORIENTED_EDGE('',*,*,#621,.F.);
#794=ORIENTED_EDGE('',*,*,#627,.F.);
#795=ORIENTED_EDGE('',*,*,#628,.T.);
#796=ORIENTED_EDGE('',*,*,#588,.F.);
#797=ORIENTED_EDGE('',*,*,#628,.F.);
#798=ORIENTED_EDGE('',*,*,#625,.T.);
#799=ORIENTED_EDGE('',*,*,#622,.T.);
#800=ORIENTED_EDGE('',*,*,#626,.T.);
#801=ORIENTED_EDGE('',*,*,#629,.F.);
#802=ORIENTED_EDGE('',*,*,#594,.T.);
#803=ORIENTED_EDGE('',*,*,#586,.F.);
#804=ORIENTED_EDGE('',*,*,#630,.F.);
#805=ORIENTED_EDGE('',*,*,#630,.T.);
#806=ORIENTED_EDGE('',*,*,#585,.F.);
#807=ORIENTED_EDGE('',*,*,#631,.T.);
#808=ORIENTED_EDGE('',*,*,#632,.T.);
#809=ORIENTED_EDGE('',*,*,#624,.T.);
#810=ORIENTED_EDGE('',*,*,#620,.T.);
#811=ORIENTED_EDGE('',*,*,#618,.T.);
#812=ORIENTED_EDGE('',*,*,#633,.T.);
#813=ORIENTED_EDGE('',*,*,#634,.F.);
#814=ORIENTED_EDGE('',*,*,#580,.F.);
#815=ORIENTED_EDGE('',*,*,#590,.F.);
#816=ORIENTED_EDGE('',*,*,#635,.F.);
#817=ORIENTED_EDGE('',*,*,#575,.F.);
#818=ORIENTED_EDGE('',*,*,#595,.T.);
#819=ORIENTED_EDGE('',*,*,#629,.T.);
#820=ORIENTED_EDGE('',*,*,#632,.F.);
#821=ORIENTED_EDGE('',*,*,#636,.F.);
#822=ORIENTED_EDGE('',*,*,#637,.F.);
#823=ORIENTED_EDGE('',*,*,#635,.T.);
#824=ORIENTED_EDGE('',*,*,#589,.T.);
#825=ORIENTED_EDGE('',*,*,#627,.T.);
#826=ORIENTED_EDGE('',*,*,#638,.F.);
#827=ORIENTED_EDGE('',*,*,#639,.F.);
#828=ORIENTED_EDGE('',*,*,#640,.F.);
#829=ORIENTED_EDGE('',*,*,#641,.F.);
#830=ORIENTED_EDGE('',*,*,#642,.F.);
#831=ORIENTED_EDGE('',*,*,#643,.F.);
#832=ORIENTED_EDGE('',*,*,#644,.F.);
#833=ORIENTED_EDGE('',*,*,#639,.T.);
#834=ORIENTED_EDGE('',*,*,#645,.F.);
#835=ORIENTED_EDGE('',*,*,#646,.F.);
#836=ORIENTED_EDGE('',*,*,#643,.T.);
#837=ORIENTED_EDGE('',*,*,#647,.F.);
#838=ORIENTED_EDGE('',*,*,#641,.T.);
#839=ORIENTED_EDGE('',*,*,#648,.F.);
#840=ORIENTED_EDGE('',*,*,#645,.T.);
#841=ORIENTED_EDGE('',*,*,#649,.F.);
#842=ORIENTED_EDGE('',*,*,#650,.F.);
#843=ORIENTED_EDGE('',*,*,#651,.F.);
#844=ORIENTED_EDGE('',*,*,#652,.F.);
#845=ORIENTED_EDGE('',*,*,#636,.T.);
#846=ORIENTED_EDGE('',*,*,#653,.T.);
#847=ORIENTED_EDGE('',*,*,#654,.F.);
#848=ORIENTED_EDGE('',*,*,#655,.F.);
#849=ORIENTED_EDGE('',*,*,#656,.F.);
#850=ORIENTED_EDGE('',*,*,#657,.F.);
#851=ORIENTED_EDGE('',*,*,#582,.T.);
#852=ORIENTED_EDGE('',*,*,#658,.F.);
#853=ORIENTED_EDGE('',*,*,#654,.T.);
#854=ORIENTED_EDGE('',*,*,#659,.F.);
#855=ORIENTED_EDGE('',*,*,#653,.F.);
#856=ORIENTED_EDGE('',*,*,#631,.F.);
#857=ORIENTED_EDGE('',*,*,#584,.F.);
#858=ORIENTED_EDGE('',*,*,#660,.F.);
#859=ORIENTED_EDGE('',*,*,#633,.F.);
#860=ORIENTED_EDGE('',*,*,#661,.T.);
#861=ORIENTED_EDGE('',*,*,#662,.T.);
#862=ORIENTED_EDGE('',*,*,#661,.F.);
#863=ORIENTED_EDGE('',*,*,#663,.F.);
#864=ORIENTED_EDGE('',*,*,#664,.F.);
#865=ORIENTED_EDGE('',*,*,#665,.F.);
#866=ORIENTED_EDGE('',*,*,#666,.T.);
#867=ORIENTED_EDGE('',*,*,#667,.T.);
#868=ORIENTED_EDGE('',*,*,#668,.T.);
#869=ORIENTED_EDGE('',*,*,#669,.T.);
#870=ORIENTED_EDGE('',*,*,#670,.F.);
#871=ORIENTED_EDGE('',*,*,#663,.T.);
#872=ORIENTED_EDGE('',*,*,#671,.T.);
#873=ORIENTED_EDGE('',*,*,#672,.F.);
#874=ORIENTED_EDGE('',*,*,#673,.F.);
#875=ORIENTED_EDGE('',*,*,#669,.F.);
#876=ORIENTED_EDGE('',*,*,#674,.F.);
#877=ORIENTED_EDGE('',*,*,#664,.T.);
#878=ORIENTED_EDGE('',*,*,#670,.T.);
#879=ORIENTED_EDGE('',*,*,#673,.T.);
#880=ORIENTED_EDGE('',*,*,#675,.F.);
#881=ORIENTED_EDGE('',*,*,#676,.F.);
#882=ORIENTED_EDGE('',*,*,#651,.T.);
#883=ORIENTED_EDGE('',*,*,#677,.F.);
#884=ORIENTED_EDGE('',*,*,#678,.F.);
#885=ORIENTED_EDGE('',*,*,#679,.F.);
#886=ORIENTED_EDGE('',*,*,#680,.F.);
#887=ORIENTED_EDGE('',*,*,#681,.F.);
#888=ORIENTED_EDGE('',*,*,#682,.F.);
#889=ORIENTED_EDGE('',*,*,#683,.T.);
#890=ORIENTED_EDGE('',*,*,#684,.F.);
#891=ORIENTED_EDGE('',*,*,#678,.T.);
#892=ORIENTED_EDGE('',*,*,#685,.F.);
#893=ORIENTED_EDGE('',*,*,#686,.F.);
#894=ORIENTED_EDGE('',*,*,#680,.T.);
#895=ORIENTED_EDGE('',*,*,#687,.F.);
#896=ORIENTED_EDGE('',*,*,#688,.T.);
#897=ORIENTED_EDGE('',*,*,#689,.F.);
#898=ORIENTED_EDGE('',*,*,#637,.T.);
#899=ORIENTED_EDGE('',*,*,#652,.T.);
#900=ORIENTED_EDGE('',*,*,#676,.T.);
#901=ORIENTED_EDGE('',*,*,#690,.F.);
#902=ORIENTED_EDGE('',*,*,#685,.T.);
#903=ORIENTED_EDGE('',*,*,#681,.T.);
#904=ORIENTED_EDGE('',*,*,#686,.T.);
#905=ORIENTED_EDGE('',*,*,#691,.F.);
#906=ORIENTED_EDGE('',*,*,#692,.T.);
#907=ORIENTED_EDGE('',*,*,#655,.T.);
#908=ORIENTED_EDGE('',*,*,#658,.T.);
#909=ORIENTED_EDGE('',*,*,#581,.T.);
#910=ORIENTED_EDGE('',*,*,#634,.T.);
#911=ORIENTED_EDGE('',*,*,#640,.T.);
#912=ORIENTED_EDGE('',*,*,#644,.T.);
#913=ORIENTED_EDGE('',*,*,#646,.T.);
#914=ORIENTED_EDGE('',*,*,#648,.T.);
#915=ORIENTED_EDGE('',*,*,#693,.F.);
#916=ORIENTED_EDGE('',*,*,#694,.T.);
#917=ORIENTED_EDGE('',*,*,#695,.F.);
#918=ORIENTED_EDGE('',*,*,#696,.F.);
#919=ORIENTED_EDGE('',*,*,#697,.F.);
#920=ORIENTED_EDGE('',*,*,#698,.F.);
#921=ORIENTED_EDGE('',*,*,#699,.T.);
#922=ORIENTED_EDGE('',*,*,#700,.F.);
#923=ORIENTED_EDGE('',*,*,#701,.T.);
#924=ORIENTED_EDGE('',*,*,#656,.T.);
#925=ORIENTED_EDGE('',*,*,#692,.F.);
#926=ORIENTED_EDGE('',*,*,#702,.F.);
#927=ORIENTED_EDGE('',*,*,#696,.T.);
#928=ORIENTED_EDGE('',*,*,#703,.T.);
#929=ORIENTED_EDGE('',*,*,#697,.T.);
#930=ORIENTED_EDGE('',*,*,#704,.F.);
#931=ORIENTED_EDGE('',*,*,#705,.F.);
#932=ORIENTED_EDGE('',*,*,#706,.F.);
#933=ORIENTED_EDGE('',*,*,#707,.F.);
#934=ORIENTED_EDGE('',*,*,#708,.T.);
#935=ORIENTED_EDGE('',*,*,#660,.T.);
#936=ORIENTED_EDGE('',*,*,#583,.T.);
#937=ORIENTED_EDGE('',*,*,#659,.T.);
#938=ORIENTED_EDGE('',*,*,#657,.T.);
#939=ORIENTED_EDGE('',*,*,#701,.F.);
#940=ORIENTED_EDGE('',*,*,#709,.F.);
#941=ORIENTED_EDGE('',*,*,#706,.T.);
#942=ORIENTED_EDGE('',*,*,#710,.T.);
#943=ORIENTED_EDGE('',*,*,#711,.T.);
#944=ORIENTED_EDGE('',*,*,#712,.F.);
#945=ORIENTED_EDGE('',*,*,#677,.T.);
#946=ORIENTED_EDGE('',*,*,#650,.T.);
#947=ORIENTED_EDGE('',*,*,#649,.T.);
#948=ORIENTED_EDGE('',*,*,#647,.T.);
#949=ORIENTED_EDGE('',*,*,#642,.T.);
#950=ORIENTED_EDGE('',*,*,#638,.T.);
#951=ORIENTED_EDGE('',*,*,#713,.T.);
#952=ORIENTED_EDGE('',*,*,#714,.F.);
#953=ORIENTED_EDGE('',*,*,#711,.F.);
#954=ORIENTED_EDGE('',*,*,#715,.F.);
#955=ORIENTED_EDGE('',*,*,#596,.T.);
#956=ORIENTED_EDGE('',*,*,#662,.F.);
#957=ORIENTED_EDGE('',*,*,#716,.F.);
#958=ORIENTED_EDGE('',*,*,#607,.F.);
#959=ORIENTED_EDGE('',*,*,#713,.F.);
#960=ORIENTED_EDGE('',*,*,#606,.T.);
#961=ORIENTED_EDGE('',*,*,#665,.T.);
#962=ORIENTED_EDGE('',*,*,#674,.T.);
#963=ORIENTED_EDGE('',*,*,#712,.T.);
#964=ORIENTED_EDGE('',*,*,#714,.T.);
#965=ORIENTED_EDGE('',*,*,#666,.F.);
#966=ORIENTED_EDGE('',*,*,#605,.F.);
#967=ORIENTED_EDGE('',*,*,#667,.F.);
#968=ORIENTED_EDGE('',*,*,#604,.F.);
#969=ORIENTED_EDGE('',*,*,#671,.F.);
#970=ORIENTED_EDGE('',*,*,#668,.F.);
#971=ORIENTED_EDGE('',*,*,#603,.T.);
#972=ORIENTED_EDGE('',*,*,#682,.T.);
#973=ORIENTED_EDGE('',*,*,#690,.T.);
#974=ORIENTED_EDGE('',*,*,#675,.T.);
#975=ORIENTED_EDGE('',*,*,#672,.T.);
#976=ORIENTED_EDGE('',*,*,#602,.F.);
#977=ORIENTED_EDGE('',*,*,#717,.F.);
#978=ORIENTED_EDGE('',*,*,#683,.F.);
#979=ORIENTED_EDGE('',*,*,#684,.T.);
#980=ORIENTED_EDGE('',*,*,#717,.T.);
#981=ORIENTED_EDGE('',*,*,#601,.T.);
#982=ORIENTED_EDGE('',*,*,#616,.T.);
#983=ORIENTED_EDGE('',*,*,#718,.T.);
#984=ORIENTED_EDGE('',*,*,#687,.T.);
#985=ORIENTED_EDGE('',*,*,#679,.T.);
#986=ORIENTED_EDGE('',*,*,#718,.F.);
#987=ORIENTED_EDGE('',*,*,#615,.F.);
#988=ORIENTED_EDGE('',*,*,#688,.F.);
#989=ORIENTED_EDGE('',*,*,#702,.T.);
#990=ORIENTED_EDGE('',*,*,#691,.T.);
#991=ORIENTED_EDGE('',*,*,#689,.T.);
#992=ORIENTED_EDGE('',*,*,#614,.T.);
#993=ORIENTED_EDGE('',*,*,#693,.T.);
#994=ORIENTED_EDGE('',*,*,#719,.F.);
#995=ORIENTED_EDGE('',*,*,#694,.F.);
#996=ORIENTED_EDGE('',*,*,#613,.F.);
#997=ORIENTED_EDGE('',*,*,#703,.F.);
#998=ORIENTED_EDGE('',*,*,#695,.T.);
#999=ORIENTED_EDGE('',*,*,#719,.T.);
#1000=ORIENTED_EDGE('',*,*,#612,.F.);
#1001=ORIENTED_EDGE('',*,*,#720,.T.);
#1002=ORIENTED_EDGE('',*,*,#698,.T.);
#1003=ORIENTED_EDGE('',*,*,#720,.F.);
#1004=ORIENTED_EDGE('',*,*,#611,.F.);
#1005=ORIENTED_EDGE('',*,*,#699,.F.);
#1006=ORIENTED_EDGE('',*,*,#707,.T.);
#1007=ORIENTED_EDGE('',*,*,#709,.T.);
#1008=ORIENTED_EDGE('',*,*,#704,.T.);
#1009=ORIENTED_EDGE('',*,*,#700,.T.);
#1010=ORIENTED_EDGE('',*,*,#610,.T.);
#1011=ORIENTED_EDGE('',*,*,#609,.F.);
#1012=ORIENTED_EDGE('',*,*,#721,.F.);
#1013=ORIENTED_EDGE('',*,*,#708,.F.);
#1014=ORIENTED_EDGE('',*,*,#715,.T.);
#1015=ORIENTED_EDGE('',*,*,#710,.F.);
#1016=ORIENTED_EDGE('',*,*,#705,.T.);
#1017=ORIENTED_EDGE('',*,*,#721,.T.);
#1018=ORIENTED_EDGE('',*,*,#608,.F.);
#1019=ORIENTED_EDGE('',*,*,#716,.T.);
#1020=ORIENTED_EDGE('',*,*,#598,.F.);
#1021=ORIENTED_EDGE('',*,*,#599,.F.);
#1022=CONICAL_SURFACE('',#1098,2.50000044286602,0.785398187890397);
#1023=CONICAL_SURFACE('',#1117,7.49144511561125,0.174532916945497);
#1024=ADVANCED_FACE('',(#90),#1022,.F.);
#1025=ADVANCED_FACE('',(#91),#42,.T.);
#1026=ADVANCED_FACE('',(#92),#43,.F.);
#1027=ADVANCED_FACE('',(#93),#33,.T.);
#1028=ADVANCED_FACE('',(#94,#20),#44,.T.);
#1029=ADVANCED_FACE('',(#95,#21,#22,#23),#45,.T.);
#1030=ADVANCED_FACE('',(#96),#46,.F.);
#1031=ADVANCED_FACE('',(#97),#34,.T.);
#1032=ADVANCED_FACE('',(#98),#1023,.T.);
#1033=ADVANCED_FACE('',(#99),#35,.F.);
#1034=ADVANCED_FACE('',(#100),#36,.F.);
#1035=ADVANCED_FACE('',(#101),#37,.F.);
#1036=ADVANCED_FACE('',(#102,#24),#38,.F.);
#1037=ADVANCED_FACE('',(#103),#39,.T.);
#1038=ADVANCED_FACE('',(#104,#25,#26,#27),#47,.F.);
#1039=ADVANCED_FACE('',(#105),#48,.F.);
#1040=ADVANCED_FACE('',(#106),#49,.T.);
#1041=ADVANCED_FACE('',(#107,#28),#50,.F.);
#1042=ADVANCED_FACE('',(#108),#51,.T.);
#1043=ADVANCED_FACE('',(#109),#52,.F.);
#1044=ADVANCED_FACE('',(#110),#53,.F.);
#1045=ADVANCED_FACE('',(#111),#54,.T.);
#1046=ADVANCED_FACE('',(#112),#55,.F.);
#1047=ADVANCED_FACE('',(#113),#56,.F.);
#1048=ADVANCED_FACE('',(#114),#57,.T.);
#1049=ADVANCED_FACE('',(#115),#58,.F.);
#1050=ADVANCED_FACE('',(#116),#40,.T.);
#1051=ADVANCED_FACE('',(#117),#59,.F.);
#1052=ADVANCED_FACE('',(#118),#60,.T.);
#1053=ADVANCED_FACE('',(#119),#61,.T.);
#1054=ADVANCED_FACE('',(#120),#62,.F.);
#1055=ADVANCED_FACE('',(#121),#63,.T.);
#1056=ADVANCED_FACE('',(#122),#64,.F.);
#1057=ADVANCED_FACE('',(#123),#65,.T.);
#1058=ADVANCED_FACE('',(#124,#29),#66,.T.);
#1059=ADVANCED_FACE('',(#125),#67,.T.);
#1060=ADVANCED_FACE('',(#126),#68,.F.);
#1061=ADVANCED_FACE('',(#127),#69,.T.);
#1062=ADVANCED_FACE('',(#128),#70,.F.);
#1063=ADVANCED_FACE('',(#129,#30),#71,.F.);
#1064=ADVANCED_FACE('',(#130),#72,.T.);
#1065=ADVANCED_FACE('',(#131,#31),#73,.F.);
#1066=ADVANCED_FACE('',(#132),#74,.F.);
#1067=ADVANCED_FACE('',(#133),#75,.T.);
#1068=ADVANCED_FACE('',(#134),#76,.F.);
#1069=ADVANCED_FACE('',(#135),#77,.F.);
#1070=ADVANCED_FACE('',(#136),#78,.T.);
#1071=ADVANCED_FACE('',(#137),#79,.F.);
#1072=ADVANCED_FACE('',(#138),#80,.F.);
#1073=ADVANCED_FACE('',(#139),#81,.F.);
#1074=ADVANCED_FACE('',(#140),#82,.T.);
#1075=ADVANCED_FACE('',(#141),#83,.F.);
#1076=ADVANCED_FACE('',(#142),#84,.F.);
#1077=ADVANCED_FACE('',(#143),#85,.F.);
#1078=ADVANCED_FACE('',(#144),#86,.T.);
#1079=ADVANCED_FACE('',(#145),#87,.F.);
#1080=ADVANCED_FACE('',(#146),#88,.T.);
#1081=ADVANCED_FACE('',(#147,#32),#89,.T.);
#1082=CLOSED_SHELL('',(#1024,#1025,#1026));
#1083=CLOSED_SHELL('',(#1027,#1028,#1029,#1030,#1031,#1032,#1033,#1034,
#1035,#1036,#1037,#1038,#1039,#1040,#1041,#1042,#1043,#1044,#1045,#1046,
#1047,#1048,#1049,#1050,#1051,#1052,#1053,#1054,#1055,#1056,#1057,#1058,
#1059,#1060,#1061,#1062,#1063,#1064,#1065,#1066,#1067,#1068,#1069,#1070,
#1071,#1072,#1073,#1074,#1075,#1076,#1077,#1078,#1079,#1080,#1081));
#1084=BREP_WITH_VOIDS('\X2\5B9E4F53\X0\1',#1083,(#41));
#1085=DERIVED_UNIT_ELEMENT(#1087,1.);
#1086=DERIVED_UNIT_ELEMENT(#1872,-3.);
#1087=(
MASS_UNIT()
NAMED_UNIT(*)
SI_UNIT(.KILO.,.GRAM.)
);
#1088=DERIVED_UNIT((#1085,#1086));
#1089=MEASURE_REPRESENTATION_ITEM('density measure',
POSITIVE_RATIO_MEASURE(7850.),#1088);
#1090=PROPERTY_DEFINITION_REPRESENTATION(#1095,#1092);
#1091=PROPERTY_DEFINITION_REPRESENTATION(#1096,#1093);
#1092=REPRESENTATION('material name',(#1094),#1869);
#1093=REPRESENTATION('density',(#1089),#1869);
#1094=DESCRIPTIVE_REPRESENTATION_ITEM('\X2\94A2\X0\','\X2\94A2\X0\');
#1095=PROPERTY_DEFINITION('material property','material name',#1879);
#1096=PROPERTY_DEFINITION('material property','density of part',#1879);
#1097=AXIS2_PLACEMENT_3D('',#1491,#1191,#1192);
#1098=AXIS2_PLACEMENT_3D('',#1492,#1193,#1194);
#1099=AXIS2_PLACEMENT_3D('',#1494,#1195,#1196);
#1100=AXIS2_PLACEMENT_3D('',#1497,#1198,#1199);
#1101=AXIS2_PLACEMENT_3D('',#1498,#1200,#1201);
#1102=AXIS2_PLACEMENT_3D('',#1499,#1202,#1203);
#1103=AXIS2_PLACEMENT_3D('',#1500,#1204,#1205);
#1104=AXIS2_PLACEMENT_3D('',#1503,#1206,#1207);
#1105=AXIS2_PLACEMENT_3D('',#1507,#1209,#1210);
#1106=AXIS2_PLACEMENT_3D('',#1509,#1212,#1213);
#1107=AXIS2_PLACEMENT_3D('',#1525,#1221,#1222);
#1108=AXIS2_PLACEMENT_3D('',#1528,#1224,#1225);
#1109=AXIS2_PLACEMENT_3D('',#1529,#1226,#1227);
#1110=AXIS2_PLACEMENT_3D('',#1534,#1230,#1231);
#1111=AXIS2_PLACEMENT_3D('',#1536,#1232,#1233);
#1112=AXIS2_PLACEMENT_3D('',#1538,#1234,#1235);
#1113=AXIS2_PLACEMENT_3D('',#1539,#1236,#1237);
#1114=AXIS2_PLACEMENT_3D('',#1543,#1240,#1241);
#1115=AXIS2_PLACEMENT_3D('',#1545,#1242,#1243);
#1116=AXIS2_PLACEMENT_3D('',#1548,#1245,#1246);
#1117=AXIS2_PLACEMENT_3D('',#1549,#1247,#1248);
#1118=AXIS2_PLACEMENT_3D('',#1551,#1249,#1250);
#1119=AXIS2_PLACEMENT_3D('',#1555,#1252,#1253);
#1120=AXIS2_PLACEMENT_3D('',#1557,#1254,#1255);
#1121=AXIS2_PLACEMENT_3D('',#1559,#1256,#1257);
#1122=AXIS2_PLACEMENT_3D('',#1561,#1258,#1259);
#1123=AXIS2_PLACEMENT_3D('',#1563,#1260,#1261);
#1124=AXIS2_PLACEMENT_3D('',#1565,#1262,#1263);
#1125=AXIS2_PLACEMENT_3D('',#1567,#1264,#1265);
#1126=AXIS2_PLACEMENT_3D('',#1569,#1266,#1267);
#1127=AXIS2_PLACEMENT_3D('',#1571,#1268,#1269);
#1128=AXIS2_PLACEMENT_3D('',#1573,#1270,#1271);
#1129=AXIS2_PLACEMENT_3D('',#1575,#1272,#1273);
#1130=AXIS2_PLACEMENT_3D('',#1577,#1274,#1275);
#1131=AXIS2_PLACEMENT_3D('',#1579,#1276,#1277);
#1132=AXIS2_PLACEMENT_3D('',#1581,#1278,#1279);
#1133=AXIS2_PLACEMENT_3D('',#1583,#1280,#1281);
#1134=AXIS2_PLACEMENT_3D('',#1584,#1282,#1283);
#1135=AXIS2_PLACEMENT_3D('',#1585,#1284,#1285);
#1136=AXIS2_PLACEMENT_3D('',#1588,#1287,#1288);
#1137=AXIS2_PLACEMENT_3D('',#1589,#1289,#1290);
#1138=AXIS2_PLACEMENT_3D('',#1592,#1292,#1293);
#1139=AXIS2_PLACEMENT_3D('',#1593,#1294,#1295);
#1140=AXIS2_PLACEMENT_3D('',#1633,#1298,#1299);
#1141=AXIS2_PLACEMENT_3D('',#1674,#1300,#1301);
#1142=AXIS2_PLACEMENT_3D('',#1676,#1302,#1303);
#1143=AXIS2_PLACEMENT_3D('',#1678,#1305,#1306);
#1144=AXIS2_PLACEMENT_3D('',#1680,#1307,#1308);
#1145=AXIS2_PLACEMENT_3D('',#1682,#1310,#1311);
#1146=AXIS2_PLACEMENT_3D('',#1686,#1314,#1315);
#1147=AXIS2_PLACEMENT_3D('',#1688,#1316,#1317);
#1148=AXIS2_PLACEMENT_3D('',#1689,#1318,#1319);
#1149=AXIS2_PLACEMENT_3D('',#1693,#1322,#1323);
#1150=AXIS2_PLACEMENT_3D('',#1697,#1326,#1327);
#1151=AXIS2_PLACEMENT_3D('',#1706,#1332,#1333);
#1152=AXIS2_PLACEMENT_3D('',#1712,#1337,#1338);
#1153=AXIS2_PLACEMENT_3D('',#1718,#1342,#1343);
#1154=AXIS2_PLACEMENT_3D('',#1721,#1346,#1347);
#1155=AXIS2_PLACEMENT_3D('',#1729,#1352,#1353);
#1156=AXIS2_PLACEMENT_3D('',#1738,#1358,#1359);
#1157=AXIS2_PLACEMENT_3D('',#1741,#1362,#1363);
#1158=AXIS2_PLACEMENT_3D('',#1743,#1365,#1366);
#1159=AXIS2_PLACEMENT_3D('',#1746,#1368,#1369);
#1160=AXIS2_PLACEMENT_3D('',#1747,#1370,#1371);
#1161=AXIS2_PLACEMENT_3D('',#1755,#1376,#1377);
#1162=AXIS2_PLACEMENT_3D('',#1762,#1382,#1383);
#1163=AXIS2_PLACEMENT_3D('',#1767,#1387,#1388);
#1164=AXIS2_PLACEMENT_3D('',#1774,#1393,#1394);
#1165=AXIS2_PLACEMENT_3D('',#1783,#1399,#1400);
#1166=AXIS2_PLACEMENT_3D('',#1790,#1405,#1406);
#1167=AXIS2_PLACEMENT_3D('',#1797,#1411,#1412);
#1168=AXIS2_PLACEMENT_3D('',#1802,#1416,#1417);
#1169=AXIS2_PLACEMENT_3D('',#1810,#1422,#1423);
#1170=AXIS2_PLACEMENT_3D('',#1818,#1428,#1429);
#1171=AXIS2_PLACEMENT_3D('',#1824,#1434,#1435);
#1172=AXIS2_PLACEMENT_3D('',#1832,#1440,#1441);
#1173=AXIS2_PLACEMENT_3D('',#1839,#1446,#1447);
#1174=AXIS2_PLACEMENT_3D('',#1844,#1451,#1452);
#1175=AXIS2_PLACEMENT_3D('',#1845,#1453,#1454);
#1176=AXIS2_PLACEMENT_3D('',#1847,#1456,#1457);
#1177=AXIS2_PLACEMENT_3D('',#1848,#1458,#1459);
#1178=AXIS2_PLACEMENT_3D('',#1849,#1460,#1461);
#1179=AXIS2_PLACEMENT_3D('',#1850,#1462,#1463);
#1180=AXIS2_PLACEMENT_3D('',#1851,#1464,#1465);
#1181=AXIS2_PLACEMENT_3D('',#1853,#1467,#1468);
#1182=AXIS2_PLACEMENT_3D('',#1855,#1470,#1471);
#1183=AXIS2_PLACEMENT_3D('',#1856,#1472,#1473);
#1184=AXIS2_PLACEMENT_3D('',#1857,#1474,#1475);
#1185=AXIS2_PLACEMENT_3D('',#1859,#1477,#1478);
#1186=AXIS2_PLACEMENT_3D('',#1861,#1480,#1481);
#1187=AXIS2_PLACEMENT_3D('',#1862,#1482,#1483);
#1188=AXIS2_PLACEMENT_3D('',#1863,#1484,#1485);
#1189=AXIS2_PLACEMENT_3D('',#1865,#1487,#1488);
#1190=AXIS2_PLACEMENT_3D('',#1866,#1489,#1490);
#1191=DIRECTION('axis',(0.,0.,1.));
#1192=DIRECTION('refdir',(1.,0.,0.));
#1193=DIRECTION('center_axis',(1.75044731758375E-8,-8.23847507665093E-9,
-1.));
#1194=DIRECTION('ref_axis',(-1.,0.,-1.75044731758375E-8));
#1195=DIRECTION('center_axis',(0.,0.,-1.));
#1196=DIRECTION('ref_axis',(-1.,8.23847452824024E-9,0.));
#1197=DIRECTION('',(0.707106810883209,-5.82548153724862E-9,-0.707106751489885));
#1198=DIRECTION('center_axis',(0.,0.,1.));
#1199=DIRECTION('ref_axis',(-1.,8.23847441579727E-9,0.));
#1200=DIRECTION('center_axis',(0.,0.,1.));
#1201=DIRECTION('ref_axis',(1.,0.,0.));
#1202=DIRECTION('center_axis',(0.,0.,1.));
#1203=DIRECTION('ref_axis',(1.,0.,0.));
#1204=DIRECTION('center_axis',(0.,0.,-1.));
#1205=DIRECTION('ref_axis',(0.707106781186547,-0.707106781186547,0.));
#1206=DIRECTION('center_axis',(0.,0.,1.));
#1207=DIRECTION('ref_axis',(0.707106781186547,-0.707106781186547,0.));
#1208=DIRECTION('',(0.,0.,1.));
#1209=DIRECTION('center_axis',(0.,0.,-1.));
#1210=DIRECTION('ref_axis',(0.707106781186547,-0.707106781186547,0.));
#1211=DIRECTION('',(0.,0.,-1.));
#1212=DIRECTION('center_axis',(0.,0.,1.));
#1213=DIRECTION('ref_axis',(1.,0.,0.));
#1214=DIRECTION('',(0.,-1.,0.));
#1215=DIRECTION('',(-1.,0.,0.));
#1216=DIRECTION('',(0.,-1.,0.));
#1217=DIRECTION('',(1.,0.,0.));
#1218=DIRECTION('',(0.,1.,0.));
#1219=DIRECTION('',(0.707106927784285,-0.70710663458878,0.));
#1220=DIRECTION('',(0.,-1.,0.));
#1221=DIRECTION('center_axis',(0.,0.,1.));
#1222=DIRECTION('ref_axis',(-1.,0.,0.));
#1223=DIRECTION('',(1.,0.,0.));
#1224=DIRECTION('center_axis',(0.,0.,-1.));
#1225=DIRECTION('ref_axis',(-1.,1.05331185096999E-18,0.));
#1226=DIRECTION('center_axis',(1.,0.,0.));
#1227=DIRECTION('ref_axis',(0.,0.,-1.));
#1228=DIRECTION('',(0.,-1.,0.));
#1229=DIRECTION('',(0.,0.,1.));
#1230=DIRECTION('center_axis',(1.,0.,0.));
#1231=DIRECTION('ref_axis',(0.,1.,0.));
#1232=DIRECTION('center_axis',(1.,0.,0.));
#1233=DIRECTION('ref_axis',(0.,1.,0.));
#1234=DIRECTION('center_axis',(1.,0.,0.));
#1235=DIRECTION('ref_axis',(0.,1.,-2.25334711110866E-16));
#1236=DIRECTION('center_axis',(0.,1.,0.));
#1237=DIRECTION('ref_axis',(0.,0.,1.));
#1238=DIRECTION('',(0.,0.,1.));
#1239=DIRECTION('',(-1.,0.,0.));
#1240=DIRECTION('center_axis',(-5.44744047348598E-9,5.21290088459695E-9,
-1.));
#1241=DIRECTION('ref_axis',(1.,0.,-5.44744047348598E-9));
#1242=DIRECTION('center_axis',(0.,0.,1.));
#1243=DIRECTION('ref_axis',(1.,-2.83969672630243E-17,0.));
#1244=DIRECTION('',(5.44744047348598E-9,-5.21290088459695E-9,1.));
#1245=DIRECTION('center_axis',(0.,0.,1.));
#1246=DIRECTION('ref_axis',(1.,-2.83969672630243E-17,0.));
#1247=DIRECTION('center_axis',(8.60637875934941E-9,7.10415080548549E-9,
-1.));
#1248=DIRECTION('ref_axis',(-1.,0.,-8.60637875934941E-9));
#1249=DIRECTION('center_axis',(0.,0.,1.));
#1250=DIRECTION('ref_axis',(-1.,-1.25265388482224E-9,0.));
#1251=DIRECTION('',(-0.173648178014019,-6.99622278072651E-9,0.984807752951007));
#1252=DIRECTION('center_axis',(0.904805193936976,0.,0.425825740209151));
#1253=DIRECTION('ref_axis',(0.425825740209151,7.85159272867676E-9,-0.904805193936976));
#1254=DIRECTION('center_axis',(0.,0.,-1.));
#1255=DIRECTION('ref_axis',(-1.,-1.25265335009679E-9,0.));
#1256=DIRECTION('center_axis',(0.,0.,1.));
#1257=DIRECTION('ref_axis',(-1.,-1.25265335009679E-9,0.));
#1258=DIRECTION('center_axis',(0.,0.,-1.));
#1259=DIRECTION('ref_axis',(-1.,-1.25265335009679E-9,0.));
#1260=DIRECTION('center_axis',(0.,0.,-1.));
#1261=DIRECTION('ref_axis',(-1.,-1.25265335009679E-9,0.));
#1262=DIRECTION('center_axis',(0.,0.,1.));
#1263=DIRECTION('ref_axis',(-1.,-1.25265335009679E-9,0.));
#1264=DIRECTION('center_axis',(0.,0.,-1.));
#1265=DIRECTION('ref_axis',(-1.,-1.25265335009679E-9,0.));
#1266=DIRECTION('center_axis',(0.,0.,-1.));
#1267=DIRECTION('ref_axis',(-1.,-1.25265335009679E-9,0.));
#1268=DIRECTION('center_axis',(0.,0.,-1.));
#1269=DIRECTION('ref_axis',(-1.,-1.25265335009679E-9,0.));
#1270=DIRECTION('center_axis',(0.,0.,1.));
#1271=DIRECTION('ref_axis',(-1.,-1.25265335009679E-9,0.));
#1272=DIRECTION('center_axis',(0.,0.,-1.));
#1273=DIRECTION('ref_axis',(-1.,-1.25265335009679E-9,0.));
#1274=DIRECTION('center_axis',(0.,-0.904805284029079,-0.425825548779142));
#1275=DIRECTION('ref_axis',(9.51185650164725E-9,0.425825548779142,-0.904805284029079));
#1276=DIRECTION('center_axis',(0.,0.,-1.));
#1277=DIRECTION('ref_axis',(-1.,-1.25265335009679E-9,0.));
#1278=DIRECTION('center_axis',(0.,0.,1.));
#1279=DIRECTION('ref_axis',(-1.,-1.25265335009679E-9,0.));
#1280=DIRECTION('center_axis',(0.,0.,-1.));
#1281=DIRECTION('ref_axis',(-1.,-1.25265335009679E-9,0.));
#1282=DIRECTION('center_axis',(0.904805193936976,0.,0.425825740209151));
#1283=DIRECTION('ref_axis',(0.425825740209151,7.85159272867676E-9,-0.904805193936976));
#1284=DIRECTION('center_axis',(-1.,6.61619403918946E-19,-1.33096295609752E-17));
#1285=DIRECTION('ref_axis',(6.61619403918946E-19,1.,1.3363823550461E-50));
#1286=DIRECTION('',(-1.,6.61619403918946E-19,-1.33096295609752E-17));
#1287=DIRECTION('center_axis',(1.,0.,0.));
#1288=DIRECTION('ref_axis',(0.,1.,0.));
#1289=DIRECTION('center_axis',(-1.,8.23639261119426E-17,-3.65772259699231E-16));
#1290=DIRECTION('ref_axis',(8.23639261119426E-17,1.,0.));
#1291=DIRECTION('',(-1.,8.23639261119426E-17,-3.65772259699231E-16));
#1292=DIRECTION('center_axis',(1.,0.,0.));
#1293=DIRECTION('ref_axis',(0.,1.,0.));
#1294=DIRECTION('center_axis',(-1.,2.35828186704126E-8,-9.55503726081625E-9));
#1295=DIRECTION('ref_axis',(2.35828186704126E-8,1.,0.));
#1296=DIRECTION('',(-1.,2.35828186704126E-8,-9.55503726081625E-9));
#1297=DIRECTION('',(-1.,2.35828186704126E-8,-9.55503726081625E-9));
#1298=DIRECTION('center_axis',(1.,0.,0.));
#1299=DIRECTION('ref_axis',(0.,1.,-2.25334711110866E-16));
#1300=DIRECTION('center_axis',(2.2251257283525E-9,-4.73371835824247E-10,
1.));
#1301=DIRECTION('ref_axis',(-1.,0.,2.2251257283525E-9));
#1302=DIRECTION('center_axis',(0.,0.,1.));
#1303=DIRECTION('ref_axis',(-1.,1.05331185096999E-18,0.));
#1304=DIRECTION('',(2.2251257283525E-9,-4.73371835824247E-10,1.));
#1305=DIRECTION('center_axis',(0.,0.,1.));
#1306=DIRECTION('ref_axis',(-1.,0.,0.));
#1307=DIRECTION('center_axis',(0.,0.,-1.));
#1308=DIRECTION('ref_axis',(-1.,0.,0.));
#1309=DIRECTION('',(0.,0.,1.));
#1310=DIRECTION('center_axis',(1.,0.,0.));
#1311=DIRECTION('ref_axis',(0.,0.,-1.));
#1312=DIRECTION('',(0.,0.,-1.));
#1313=DIRECTION('',(0.,-1.,0.));
#1314=DIRECTION('center_axis',(0.,0.,1.));
#1315=DIRECTION('ref_axis',(1.,0.,0.));
#1316=DIRECTION('center_axis',(0.,0.,1.));
#1317=DIRECTION('ref_axis',(1.,4.58930525714833E-18,0.));
#1318=DIRECTION('center_axis',(0.,1.,0.));
#1319=DIRECTION('ref_axis',(0.,0.,1.));
#1320=DIRECTION('',(0.,0.,-1.));
#1321=DIRECTION('',(1.,0.,0.));
#1322=DIRECTION('center_axis',(0.,0.,1.));
#1323=DIRECTION('ref_axis',(1.,0.,0.));
#1324=DIRECTION('',(-0.999999999999993,-1.16391241889576E-7,0.));
#1325=DIRECTION('',(0.,1.,0.));
#1326=DIRECTION('center_axis',(0.,1.,0.));
#1327=DIRECTION('ref_axis',(0.,0.,1.));
#1328=DIRECTION('',(0.,0.,-1.));
#1329=DIRECTION('',(-1.,0.,0.));
#1330=DIRECTION('',(0.,0.,1.));
#1331=DIRECTION('',(1.,0.,0.));
#1332=DIRECTION('center_axis',(0.,0.573576467120665,0.819152022743872));
#1333=DIRECTION('ref_axis',(1.,0.,0.));
#1334=DIRECTION('',(0.,-0.819152022743872,0.573576467120664));
#1335=DIRECTION('',(-1.,0.,0.));
#1336=DIRECTION('',(0.,0.819152022743872,-0.573576467120664));
#1337=DIRECTION('center_axis',(0.,1.,0.));
#1338=DIRECTION('ref_axis',(0.,0.,1.));
#1339=DIRECTION('',(-1.,0.,0.));
#1340=DIRECTION('',(0.,0.,-1.));
#1341=DIRECTION('',(0.,0.,1.));
#1342=DIRECTION('center_axis',(0.,0.573576467120665,0.819152022743872));
#1343=DIRECTION('ref_axis',(1.,0.,0.));
#1344=DIRECTION('',(0.,-0.819152022743872,0.573576467120664));
#1345=DIRECTION('',(0.,0.819152022743872,-0.573576467120664));
#1346=DIRECTION('center_axis',(-8.23010333779755E-8,0.707106755129022,0.707106807244068));
#1347=DIRECTION('ref_axis',(0.999999999999993,1.7205356741103E-22,1.16391233311331E-7));
#1348=DIRECTION('',(0.,-0.70710680724407,0.707106755129024));
#1349=DIRECTION('',(-0.999999999999993,0.,-1.16391233311331E-7));
#1350=DIRECTION('',(0.,0.70710680724407,-0.707106755129024));
#1351=DIRECTION('',(-0.577350420569449,0.57735018117631,-0.577350205823088));
#1352=DIRECTION('center_axis',(0.,-0.844056172063752,-0.536254770049728));
#1353=DIRECTION('ref_axis',(-1.,0.,0.));
#1354=DIRECTION('',(-1.,0.,0.));
#1355=DIRECTION('',(0.,-0.536254770049728,0.844056172063752));
#1356=DIRECTION('',(1.,0.,0.));
#1357=DIRECTION('',(0.,0.536254770049728,-0.844056172063752));
#1358=DIRECTION('center_axis',(0.,0.707106781186548,0.707106781186548));
#1359=DIRECTION('ref_axis',(1.,0.,0.));
#1360=DIRECTION('',(0.,-0.707106781186548,0.707106781186548));
#1361=DIRECTION('',(0.,0.707106781186548,-0.707106781186548));
#1362=DIRECTION('center_axis',(0.70710663458878,0.707106927784285,0.));
#1363=DIRECTION('ref_axis',(0.,0.,-1.));
#1364=DIRECTION('',(0.,0.,1.));
#1365=DIRECTION('center_axis',(-2.54850168435035E-9,-1.80078564802606E-9,
-1.));
#1366=DIRECTION('ref_axis',(1.,0.,-2.54850168435035E-9));
#1367=DIRECTION('',(2.54850168435035E-9,1.80078564802606E-9,1.));
#1368=DIRECTION('center_axis',(0.,0.,1.));
#1369=DIRECTION('ref_axis',(1.,4.58930525714833E-18,0.));
#1370=DIRECTION('center_axis',(1.,0.,0.));
#1371=DIRECTION('ref_axis',(0.,0.,-1.));
#1372=DIRECTION('',(0.,-0.425825931639103,-0.90480510384485));
#1373=DIRECTION('',(0.,0.,1.));
#1374=DIRECTION('',(0.,1.,0.));
#1375=DIRECTION('',(0.,-1.,0.));
#1376=DIRECTION('center_axis',(0.,-0.904805103844851,0.425825931639102));
#1377=DIRECTION('ref_axis',(0.,-0.425825931639102,-0.904805103844851));
#1378=DIRECTION('',(1.,0.,0.));
#1379=DIRECTION('',(1.,0.,0.));
#1380=DIRECTION('',(0.,0.425825931639103,0.90480510384485));
#1381=DIRECTION('',(1.,0.,0.));
#1382=DIRECTION('center_axis',(1.,0.,0.));
#1383=DIRECTION('ref_axis',(0.,0.,-1.));
#1384=DIRECTION('',(0.,1.,0.));
#1385=DIRECTION('',(0.,-1.,0.));
#1386=DIRECTION('',(0.,0.,-1.));
#1387=DIRECTION('center_axis',(0.,1.,0.));
#1388=DIRECTION('ref_axis',(0.,0.,1.));
#1389=DIRECTION('',(-1.,0.,0.));
#1390=DIRECTION('',(-1.,0.,0.));
#1391=DIRECTION('',(0.,0.,-1.));
#1392=DIRECTION('',(0.,0.,1.));
#1393=DIRECTION('center_axis',(0.,0.,1.));
#1394=DIRECTION('ref_axis',(1.,0.,0.));
#1395=DIRECTION('',(-1.,0.,0.));
#1396=DIRECTION('',(0.,-1.,0.));
#1397=DIRECTION('',(1.,0.,0.));
#1398=DIRECTION('',(0.,1.,0.));
#1399=DIRECTION('center_axis',(0.,1.,0.));
#1400=DIRECTION('ref_axis',(0.,0.,1.));
#1401=DIRECTION('',(-1.,0.,0.));
#1402=DIRECTION('',(1.,0.,0.));
#1403=DIRECTION('',(0.425825740209151,0.,-0.904805193936976));
#1404=DIRECTION('',(0.,0.,1.));
#1405=DIRECTION('center_axis',(0.,1.,0.));
#1406=DIRECTION('ref_axis',(0.,0.,1.));
#1407=DIRECTION('',(0.,0.,-1.));
#1408=DIRECTION('',(-0.425825740209151,0.,0.904805193936976));
#1409=DIRECTION('',(-1.,0.,0.));
#1410=DIRECTION('',(1.,0.,0.));
#1411=DIRECTION('center_axis',(1.,0.,0.));
#1412=DIRECTION('ref_axis',(0.,0.,-1.));
#1413=DIRECTION('',(0.,-1.,0.));
#1414=DIRECTION('',(0.,-1.,0.));
#1415=DIRECTION('',(0.,0.,1.));
#1416=DIRECTION('center_axis',(1.,0.,0.));
#1417=DIRECTION('ref_axis',(0.,0.,-1.));
#1418=DIRECTION('',(0.,-1.,0.));
#1419=DIRECTION('',(0.,1.,0.));
#1420=DIRECTION('',(0.,0.425825548779142,-0.904805284029079));
#1421=DIRECTION('',(0.,0.,1.));
#1422=DIRECTION('center_axis',(1.,0.,0.));
#1423=DIRECTION('ref_axis',(0.,0.,-1.));
#1424=DIRECTION('',(0.,0.,-1.));
#1425=DIRECTION('',(0.,-0.425825548779142,0.904805284029079));
#1426=DIRECTION('',(0.,-1.,0.));
#1427=DIRECTION('',(0.,1.,0.));
#1428=DIRECTION('center_axis',(0.,1.,0.));
#1429=DIRECTION('ref_axis',(0.,0.,1.));
#1430=DIRECTION('',(0.,0.,1.));
#1431=DIRECTION('',(1.,0.,0.));
#1432=DIRECTION('',(-1.,0.,0.));
#1433=DIRECTION('',(1.,0.,0.));
#1434=DIRECTION('center_axis',(0.,-1.,0.));
#1435=DIRECTION('ref_axis',(0.,0.,-1.));
#1436=DIRECTION('',(-0.425825764137898,0.,-0.904805182675462));
#1437=DIRECTION('',(0.,0.,1.));
#1438=DIRECTION('',(1.,0.,0.));
#1439=DIRECTION('',(-1.,0.,0.));
#1440=DIRECTION('center_axis',(1.,0.,0.));
#1441=DIRECTION('ref_axis',(0.,0.,-1.));
#1442=DIRECTION('',(0.,1.,0.));
#1443=DIRECTION('',(0.,-1.,0.));
#1444=DIRECTION('',(0.,0.,-1.));
#1445=DIRECTION('',(0.,1.,0.));
#1446=DIRECTION('center_axis',(0.,-1.,0.));
#1447=DIRECTION('ref_axis',(0.,0.,-1.));
#1448=DIRECTION('',(1.,0.,0.));
#1449=DIRECTION('',(-1.,0.,0.));
#1450=DIRECTION('',(0.425825764137898,0.,0.904805182675462));
#1451=DIRECTION('center_axis',(0.,0.,1.));
#1452=DIRECTION('ref_axis',(1.,0.,0.));
#1453=DIRECTION('center_axis',(0.,0.,1.));
#1454=DIRECTION('ref_axis',(1.,0.,0.));
#1455=DIRECTION('',(0.,-1.,0.));
#1456=DIRECTION('center_axis',(0.,0.,1.));
#1457=DIRECTION('ref_axis',(1.,0.,0.));
#1458=DIRECTION('center_axis',(0.,0.,1.));
#1459=DIRECTION('ref_axis',(1.,0.,0.));
#1460=DIRECTION('center_axis',(0.,0.,1.));
#1461=DIRECTION('ref_axis',(1.,0.,0.));
#1462=DIRECTION('center_axis',(0.,0.,1.));
#1463=DIRECTION('ref_axis',(1.,0.,0.));
#1464=DIRECTION('center_axis',(0.,0.,1.));
#1465=DIRECTION('ref_axis',(1.,0.,0.));
#1466=DIRECTION('',(0.,1.,0.));
#1467=DIRECTION('center_axis',(-0.904805193936976,0.,-0.425825740209151));
#1468=DIRECTION('ref_axis',(-0.425825740209151,0.,0.904805193936976));
#1469=DIRECTION('',(0.,1.,0.));
#1470=DIRECTION('center_axis',(0.,0.,1.));
#1471=DIRECTION('ref_axis',(1.,0.,0.));
#1472=DIRECTION('center_axis',(0.,0.,1.));
#1473=DIRECTION('ref_axis',(1.,0.,0.));
#1474=DIRECTION('center_axis',(0.,0.,1.));
#1475=DIRECTION('ref_axis',(1.,0.,0.));
#1476=DIRECTION('',(-1.,0.,0.));
#1477=DIRECTION('center_axis',(0.,-0.904805284029079,-0.425825548779142));
#1478=DIRECTION('ref_axis',(0.,0.425825548779142,-0.904805284029079));
#1479=DIRECTION('',(-1.,0.,0.));
#1480=DIRECTION('center_axis',(0.,0.,1.));
#1481=DIRECTION('ref_axis',(1.,0.,0.));
#1482=DIRECTION('center_axis',(0.,0.,1.));
#1483=DIRECTION('ref_axis',(1.,0.,0.));
#1484=DIRECTION('center_axis',(0.,0.,1.));
#1485=DIRECTION('ref_axis',(1.,0.,0.));
#1486=DIRECTION('',(0.,-1.,0.));
#1487=DIRECTION('center_axis',(-0.904805182675462,0.,0.425825764137898));
#1488=DIRECTION('ref_axis',(0.425825764137898,0.,0.904805182675462));
#1489=DIRECTION('center_axis',(0.,0.,1.));
#1490=DIRECTION('ref_axis',(1.,0.,0.));
#1491=CARTESIAN_POINT('',(0.,0.,0.));
#1492=CARTESIAN_POINT('Origin',(16.4999975432165,289.992451538405,327.49999956326));
#1493=CARTESIAN_POINT('',(16.9999974251138,289.992451554882,329.5));
#1494=CARTESIAN_POINT('Origin',(16.4999975169597,289.992451550763,329.5));
#1495=CARTESIAN_POINT('',(18.9999975931035,289.992451538405,327.5));
#1496=CARTESIAN_POINT('',(18.9999979860825,289.992451538405,327.499999607021));
#1497=CARTESIAN_POINT('Origin',(16.4999975869776,289.992451517809,327.5));
#1498=CARTESIAN_POINT('Origin',(16.4999975365584,289.992451552968,327.5));
#1499=CARTESIAN_POINT('Origin',(16.499997486365,289.992451603162,329.5));
#1500=CARTESIAN_POINT('Origin',(19.5499981162919,263.793205761282,350.327671250053));
#1501=CARTESIAN_POINT('',(19.5499981162919,260.99320676264,347.499244689941));
#1502=CARTESIAN_POINT('',(22.3499971149339,263.793205761282,347.499244689941));
#1503=CARTESIAN_POINT('Origin',(19.5499981162919,263.793205761282,347.499244689941));
#1504=CARTESIAN_POINT('',(22.3499971149339,263.793205761282,353.156097412109));
#1505=CARTESIAN_POINT('',(22.3499971149339,263.793205761282,350.327671250053));
#1506=CARTESIAN_POINT('',(19.5499981162919,260.99320676264,353.156097412109));
#1507=CARTESIAN_POINT('Origin',(19.5499981162919,263.793205761282,353.156097412109));
#1508=CARTESIAN_POINT('',(19.5499981162919,260.99320676264,350.327671250053));
#1509=CARTESIAN_POINT('Origin',(16.4538436282419,264.810946114995,353.156097412109));
#1510=CARTESIAN_POINT('',(22.3499971149339,280.976574682562,353.156097412109));
#1511=CARTESIAN_POINT('',(22.3499971149339,267.926279570327,353.156097412109));
#1512=CARTESIAN_POINT('',(18.9999976871385,280.976574682562,353.156097412109));
#1513=CARTESIAN_POINT('',(17.8144205146391,280.976574682562,353.156097412109));
#1514=CARTESIAN_POINT('',(18.9999976871385,286.650061392157,353.156097412109));
#1515=CARTESIAN_POINT('',(18.9999976871385,276.382150592044,353.156097412109));
#1516=CARTESIAN_POINT('',(12.4999972103013,286.650061392157,353.156097412109));
#1517=CARTESIAN_POINT('',(16.1019205384809,286.650061392157,353.156097412109));
#1518=CARTESIAN_POINT('',(12.4999972103013,282.14320638117,353.156097412109));
#1519=CARTESIAN_POINT('',(12.4999972103013,276.672569707784,353.156097412109));
#1520=CARTESIAN_POINT('',(13.6499973056688,280.99320676264,353.156097412109));
#1521=CARTESIAN_POINT('',(18.1090243150287,276.534181602176,353.156097412109));
#1522=CARTESIAN_POINT('',(13.6499973056688,263.793205761282,353.156097412109));
#1523=CARTESIAN_POINT('',(13.6499973056688,267.926424197111,353.156097412109));
#1524=CARTESIAN_POINT('',(16.4499963043107,260.99320676264,353.156097412109));
#1525=CARTESIAN_POINT('Origin',(16.4499963043107,263.793205761282,353.156097412109));
#1526=CARTESIAN_POINT('',(16.4769205384809,260.99320676264,353.156097412109));
#1527=CARTESIAN_POINT('',(18.3999974828947,263.493206666526,353.156097412109));
#1528=CARTESIAN_POINT('Origin',(16.4999974474818,263.493206666526,353.156097412109));
#1529=CARTESIAN_POINT('Origin',(22.3499971149339,271.04161302566,350.327671449081));
#1530=CARTESIAN_POINT('',(22.3499971149339,280.976574682562,347.499244689941));
#1531=CARTESIAN_POINT('',(22.3499971149339,267.570499965781,347.499244689941));
#1532=CARTESIAN_POINT('',(22.3499971149339,280.976574682562,350.327671250053));
#1533=CARTESIAN_POINT('',(22.3499971149339,274.593206822465,350.327671519054));
#1534=CARTESIAN_POINT('Origin',(22.3499971149339,275.993206668971,350.327671519054));
#1535=CARTESIAN_POINT('',(22.3499971149339,269.593206843039,350.327671658692));
#1536=CARTESIAN_POINT('Origin',(22.3499971149339,270.993206587263,350.327671658692));
#1537=CARTESIAN_POINT('',(22.3499971149339,264.593206565495,350.327671620258));
#1538=CARTESIAN_POINT('Origin',(22.3499971149339,265.993206448929,350.327671620258));
#1539=CARTESIAN_POINT('Origin',(16.4999974487199,260.99320676264,350.327671051025));
#1540=CARTESIAN_POINT('',(16.4499963043107,260.99320676264,347.499244689941));
#1541=CARTESIAN_POINT('',(16.4499963043107,260.99320676264,347.499244689941));
#1542=CARTESIAN_POINT('',(16.5396800054324,260.99320676264,347.499244689941));
#1543=CARTESIAN_POINT('Origin',(16.4999975152842,289.992452008214,325.461122476821));
#1544=CARTESIAN_POINT('',(9.99999733482369,289.992452049715,317.5));
#1545=CARTESIAN_POINT('Origin',(16.4999974719165,289.992452049715,317.5));
#1546=CARTESIAN_POINT('',(9.9999974301539,289.992451958489,335.));
#1547=CARTESIAN_POINT('',(9.99999737819143,289.992452008214,325.461122512229));
#1548=CARTESIAN_POINT('Origin',(16.4999975672467,289.992451958489,335.));
#1549=CARTESIAN_POINT('Origin',(16.4999975165716,289.992451441508,327.548516949302));
#1550=CARTESIAN_POINT('',(22.6775451327137,289.992451388572,335.));
#1551=CARTESIAN_POINT('Origin',(16.4999974618159,289.99245139631,335.));
#1552=CARTESIAN_POINT('',(22.2367276599818,289.992451370811,337.500000113722));
#1553=CARTESIAN_POINT('',(23.9914426321828,289.992451441508,327.548517013777));
#1554=CARTESIAN_POINT('',(22.2367273090257,289.990388189033,337.5));
#1555=CARTESIAN_POINT('Origin',(18.0635403547096,289.992451313044,346.367292122079));
#1556=CARTESIAN_POINT('',(22.1488976866102,288.992451452582,337.5));
#1557=CARTESIAN_POINT('Origin',(16.499997439631,289.992451377998,337.5));
#1558=CARTESIAN_POINT('',(17.4999976871385,284.343551188037,337.5));
#1559=CARTESIAN_POINT('Origin',(16.499997439631,289.992451377998,337.5));
#1560=CARTESIAN_POINT('',(16.4999976871385,284.255721007307,337.5));
#1561=CARTESIAN_POINT('Origin',(16.499997439631,289.992451377998,337.5));
#1562=CARTESIAN_POINT('',(15.4999976871385,284.343551100406,337.5));
#1563=CARTESIAN_POINT('Origin',(16.499997439631,289.992451377998,337.5));
#1564=CARTESIAN_POINT('',(10.8510971926518,288.992451452582,337.5));
#1565=CARTESIAN_POINT('Origin',(16.499997439631,289.992451377998,337.5));
#1566=CARTESIAN_POINT('',(10.7632674692049,289.99069138715,337.5));
#1567=CARTESIAN_POINT('Origin',(16.499997439631,289.992451377998,337.5));
#1568=CARTESIAN_POINT('',(10.7632674692049,289.994211368845,337.5));
#1569=CARTESIAN_POINT('Origin',(16.499997439631,289.992451377998,337.5));
#1570=CARTESIAN_POINT('',(10.8510972190584,290.992451452582,337.5));
#1571=CARTESIAN_POINT('Origin',(16.499997439631,289.992451377998,337.5));
#1572=CARTESIAN_POINT('',(15.4999976871385,295.641351655589,337.5));
#1573=CARTESIAN_POINT('Origin',(16.499997439631,289.992451377998,337.5));
#1574=CARTESIAN_POINT('',(16.4958522349697,295.729180120794,337.5));
#1575=CARTESIAN_POINT('Origin',(16.499997439631,289.992451377998,337.5));
#1576=CARTESIAN_POINT('',(16.5041426442924,295.729180120794,337.5));
#1577=CARTESIAN_POINT('Origin',(16.499997360943,291.555995111606,346.367292858237));
#1578=CARTESIAN_POINT('',(17.4999976871385,295.641351567958,337.5));
#1579=CARTESIAN_POINT('Origin',(16.499997439631,289.992451377998,337.5));
#1580=CARTESIAN_POINT('',(22.1488976602037,290.992451452582,337.5));
#1581=CARTESIAN_POINT('Origin',(16.499997439631,289.992451377998,337.5));
#1582=CARTESIAN_POINT('',(22.2367273090257,289.994514566962,337.5));
#1583=CARTESIAN_POINT('Origin',(16.499997439631,289.992451377998,337.5));
#1584=CARTESIAN_POINT('Origin',(18.0635403547096,289.992451313044,346.367292122079));
#1585=CARTESIAN_POINT('Origin',(13.6499973056688,275.993206668971,350.327671519054));
#1586=CARTESIAN_POINT('',(13.6499973056688,274.593206822465,350.327671519054));
#1587=CARTESIAN_POINT('',(13.6499973056688,274.593206822465,350.327671519054));
#1588=CARTESIAN_POINT('Origin',(13.6499973056688,275.993206668971,350.327671519054));
#1589=CARTESIAN_POINT('Origin',(13.6499973056688,270.993206587263,350.327671658692));
#1590=CARTESIAN_POINT('',(13.6499973056688,269.593206843039,350.327671658692));
#1591=CARTESIAN_POINT('',(13.6499973056688,269.593206843039,350.327671658692));
#1592=CARTESIAN_POINT('Origin',(13.6499973056688,270.993206587263,350.327671658692));
#1593=CARTESIAN_POINT('Origin',(18.0483041522874,265.993206550375,350.327671579155));
#1594=CARTESIAN_POINT('',(18.049190823774,264.59320666692,350.327671578833));
#1595=CARTESIAN_POINT('',(18.0483041192715,264.593206666941,350.327671579155));
#1596=CARTESIAN_POINT('',(14.9508041104845,264.593206739988,350.327671549227));
#1597=CARTESIAN_POINT('Ctrl Pts',(14.9508041104845,264.593206739988,350.327671548896));
#1598=CARTESIAN_POINT('Ctrl Pts',(14.9508041107591,264.59320673993,350.451081120905));
#1599=CARTESIAN_POINT('Ctrl Pts',(14.9627886298646,264.610769363435,350.583799755214));
#1600=CARTESIAN_POINT('Ctrl Pts',(15.0164724580565,264.681108756116,350.832778625037));
#1601=CARTESIAN_POINT('Ctrl Pts',(15.058720006974,264.733693637094,350.948974518966));
#1602=CARTESIAN_POINT('Ctrl Pts',(15.1452933885831,264.8263058063,351.104316977227));
#1603=CARTESIAN_POINT('Ctrl Pts',(15.1874250290921,264.868493691566,351.164148034135));
#1604=CARTESIAN_POINT('Ctrl Pts',(15.284902958532,264.955330538388,351.269735904013));
#1605=CARTESIAN_POINT('Ctrl Pts',(15.3403206406182,264.999774655791,351.315595137614));
#1606=CARTESIAN_POINT('Ctrl Pts',(15.4650996332609,265.088921343776,351.398598792964));
#1607=CARTESIAN_POINT('Ctrl Pts',(15.5437558902354,265.137859685823,351.437317894854));
#1608=CARTESIAN_POINT('Ctrl Pts',(15.7150171150481,265.226148487661,351.500085815956));
#1609=CARTESIAN_POINT('Ctrl Pts',(15.8076070933768,265.265464417824,351.524224065366));
#1610=CARTESIAN_POINT('Ctrl Pts',(16.0003611348509,265.329144169401,351.560703092337));
#1611=CARTESIAN_POINT('Ctrl Pts',(16.1006643188822,265.353558257715,351.573131178876));
#1612=CARTESIAN_POINT('Ctrl Pts',(16.3018444481509,265.385588863493,351.589067754396));
#1613=CARTESIAN_POINT('Ctrl Pts',(16.4027206826827,265.393206704973,351.592582553409));
#1614=CARTESIAN_POINT('Ctrl Pts',(16.5972742946067,265.393206700385,351.592582555268));
#1615=CARTESIAN_POINT('Ctrl Pts',(16.6981505285135,265.385588854198,351.589067758207));
#1616=CARTESIAN_POINT('Ctrl Pts',(16.8993306558601,265.353558239068,351.573131186603));
#1617=CARTESIAN_POINT('Ctrl Pts',(16.9996338385944,265.329144146109,351.560703102031));
#1618=CARTESIAN_POINT('Ctrl Pts',(17.1923878768966,265.265464385563,351.524224078837));
#1619=CARTESIAN_POINT('Ctrl Pts',(17.2849778533494,265.226148451068,351.500085831241));
#1620=CARTESIAN_POINT('Ctrl Pts',(17.4562390740659,265.137859641071,351.437317913399));
#1621=CARTESIAN_POINT('Ctrl Pts',(17.5348953288222,265.088921295195,351.398598812955));
#1622=CARTESIAN_POINT('Ctrl Pts',(17.659674317207,264.999774601099,351.31559515978));
#1623=CARTESIAN_POINT('Ctrl Pts',(17.7150919970007,264.955330481076,351.269735927232));
#1624=CARTESIAN_POINT('Ctrl Pts',(17.8125699218812,264.86849362965,351.164148059208));
#1625=CARTESIAN_POINT('Ctrl Pts',(17.8547015601343,264.826305742395,351.104317003101));
#1626=CARTESIAN_POINT('Ctrl Pts',(17.9412749368826,264.733693568894,350.948974546137));
#1627=CARTESIAN_POINT('Ctrl Pts',(17.9835224827955,264.681108685892,350.832778652735));
#1628=CARTESIAN_POINT('Ctrl Pts',(18.0372063064562,264.610769290799,350.58379978388));
#1629=CARTESIAN_POINT('Ctrl Pts',(18.0491908240486,264.593206666861,350.451081150017));
#1630=CARTESIAN_POINT('Ctrl Pts',(18.049190823774,264.59320666692,350.327671578501));
#1631=CARTESIAN_POINT('',(13.6499973056688,264.593206770665,350.32767153713));
#1632=CARTESIAN_POINT('',(18.0483041192715,264.593206666941,350.327671579155));
#1633=CARTESIAN_POINT('Origin',(13.6499973056688,265.9932066541,350.32767153713));
#1634=CARTESIAN_POINT('',(14.951700585338,264.594468208646,350.268253364606));
#1635=CARTESIAN_POINT('Ctrl Pts',(14.951700585338,264.594468208646,350.268253364606));
#1636=CARTESIAN_POINT('Ctrl Pts',(14.9510964520451,264.593618839334,350.288248009433));
#1637=CARTESIAN_POINT('Ctrl Pts',(14.9508041104409,264.593206739998,350.308077954837));
#1638=CARTESIAN_POINT('Ctrl Pts',(14.9508041104845,264.593206739988,350.327671548896));
#1639=CARTESIAN_POINT('Ctrl Pts',(18.049190823774,264.59320666692,350.327671578501));
#1640=CARTESIAN_POINT('Ctrl Pts',(18.0491908235201,264.593206666949,350.204262006493));
#1641=CARTESIAN_POINT('Ctrl Pts',(18.0372063052222,264.610769291174,350.0715433722));
#1642=CARTESIAN_POINT('Ctrl Pts',(17.983522480348,264.681108686623,349.822564502443));
#1643=CARTESIAN_POINT('Ctrl Pts',(17.9412749339107,264.733693569704,349.706368608565));
#1644=CARTESIAN_POINT('Ctrl Pts',(17.8547015565635,264.826305743253,349.5510261502));
#1645=CARTESIAN_POINT('Ctrl Pts',(17.8125699178933,264.868493630707,349.491195093163));
#1646=CARTESIAN_POINT('Ctrl Pts',(17.7150919921676,264.95533048251,349.385607223117));
#1647=CARTESIAN_POINT('Ctrl Pts',(17.6596743119468,264.99977460271,349.339747989477));
#1648=CARTESIAN_POINT('Ctrl Pts',(17.5348953232911,265.08892129668,349.256744334321));
#1649=CARTESIAN_POINT('Ctrl Pts',(17.4562390686665,265.137859642374,349.218025232602));
#1650=CARTESIAN_POINT('Ctrl Pts',(17.284977848145,265.226148452157,349.155257311778));
#1651=CARTESIAN_POINT('Ctrl Pts',(17.1923878717561,265.265464386618,349.131119062476));
#1652=CARTESIAN_POINT('Ctrl Pts',(16.9996338334873,265.329144147168,349.09464003567));
#1653=CARTESIAN_POINT('Ctrl Pts',(16.8993306507246,265.353558240163,349.082211949189));
#1654=CARTESIAN_POINT('Ctrl Pts',(16.6981505232164,265.385588855362,349.066275373742));
#1655=CARTESIAN_POINT('Ctrl Pts',(16.5972742891767,265.393206701582,349.062760574746));
#1656=CARTESIAN_POINT('Ctrl Pts',(16.4999974831809,265.393206703876,349.062760573816));
#1657=CARTESIAN_POINT('Ctrl Pts',(16.4027206775159,265.39320670617,349.062760572887));
#1658=CARTESIAN_POINT('Ctrl Pts',(16.3018444433827,265.385588864759,349.066275369931));
#1659=CARTESIAN_POINT('Ctrl Pts',(16.1006643147752,265.353558259186,349.082211941462));
#1660=CARTESIAN_POINT('Ctrl Pts',(16.0003611310063,265.329144171007,349.094640025977));
#1661=CARTESIAN_POINT('Ctrl Pts',(15.8076070899024,265.265464419671,349.131119049006));
#1662=CARTESIAN_POINT('Ctrl Pts',(15.7150171116808,265.226148489613,349.155257296493));
#1663=CARTESIAN_POINT('Ctrl Pts',(15.5437558869271,265.137859687826,349.218025214056));
#1664=CARTESIAN_POINT('Ctrl Pts',(15.4650996299041,265.088921345722,349.25674431433));
#1665=CARTESIAN_POINT('Ctrl Pts',(15.3403206370971,264.999774657412,349.339747967312));
#1666=CARTESIAN_POINT('Ctrl Pts',(15.2849029549763,264.95533053982,349.385607199898));
#1667=CARTESIAN_POINT('Ctrl Pts',(15.1874250256186,264.868493692607,349.491195068089));
#1668=CARTESIAN_POINT('Ctrl Pts',(15.1452933852247,264.82630580714,349.551026124327));
#1669=CARTESIAN_POINT('Ctrl Pts',(15.0587200040021,264.733693637461,349.706368581393));
#1670=CARTESIAN_POINT('Ctrl Pts',(15.016472455609,264.681108756342,349.822564474745));
#1671=CARTESIAN_POINT('Ctrl Pts',(14.9670502879998,264.616353215316,350.051778300902));
#1672=CARTESIAN_POINT('Ctrl Pts',(14.9549015646034,264.598968562439,350.16231243359));
#1673=CARTESIAN_POINT('Ctrl Pts',(14.951700585338,264.594468208646,350.268253364606));
#1674=CARTESIAN_POINT('Origin',(16.49999743839,263.49320666846,349.070163726807));
#1675=CARTESIAN_POINT('',(18.3999974703075,263.493206669203,347.499244689941));
#1676=CARTESIAN_POINT('Origin',(16.4999974348946,263.493206669203,347.499244689941));
#1677=CARTESIAN_POINT('',(18.399997473803,263.49320666846,349.070163722579));
#1678=CARTESIAN_POINT('Origin',(16.4499963043107,263.793205761282,347.499244689941));
#1679=CARTESIAN_POINT('',(13.6499973056688,263.793205761282,347.499244689941));
#1680=CARTESIAN_POINT('Origin',(16.4499963043107,263.793205761282,347.499244689941));
#1681=CARTESIAN_POINT('',(13.6499973056688,263.793205761282,347.499244689941));
#1682=CARTESIAN_POINT('Origin',(13.6499973056688,271.041902279226,350.327671449081));
#1683=CARTESIAN_POINT('',(13.6499974291953,280.993206392001,347.499244566355));
#1684=CARTESIAN_POINT('',(13.6499973056688,280.99320676264,350.183921059318));
#1685=CARTESIAN_POINT('',(13.6499973056688,267.570644592564,347.499244689941));
#1686=CARTESIAN_POINT('Origin',(16.4230745368559,289.992451550394,304.));
#1687=CARTESIAN_POINT('',(13.4999976682388,289.992451632482,304.));
#1688=CARTESIAN_POINT('Origin',(16.4999975575369,289.992451632482,304.));
#1689=CARTESIAN_POINT('Origin',(19.1749974010362,280.976574682562,350.327671051025));
#1690=CARTESIAN_POINT('',(18.9999976871385,280.976574682562,347.499244689941));
#1691=CARTESIAN_POINT('',(18.9999976871385,280.976574682562,347.337959626142));
#1692=CARTESIAN_POINT('',(17.8771799815905,280.976574682562,347.499244689941));
#1693=CARTESIAN_POINT('Origin',(16.5793625621448,264.099386905902,347.499244689941));
#1694=CARTESIAN_POINT('',(18.9999976871385,280.993206643994,347.499244689941));
#1695=CARTESIAN_POINT('',(15.9546791377396,280.993206289545,347.499244689941));
#1696=CARTESIAN_POINT('',(18.9999976871385,276.026370987498,347.499244689941));
#1697=CARTESIAN_POINT('Origin',(15.7499974487199,285.094887518255,348.66393661499));
#1698=CARTESIAN_POINT('',(12.4999972103013,285.094887518255,349.91393661499));
#1699=CARTESIAN_POINT('',(12.4999972103013,285.094887518255,347.41393661499));
#1700=CARTESIAN_POINT('',(12.4999972103013,285.094887518255,346.371686220169));
#1701=CARTESIAN_POINT('',(18.9999976871385,285.094887518255,349.91393661499));
#1702=CARTESIAN_POINT('',(15.7499974487199,285.094887518255,349.91393661499));
#1703=CARTESIAN_POINT('',(18.9999976871385,285.094887518255,347.41393661499));
#1704=CARTESIAN_POINT('',(18.9999976871385,285.094887518255,346.506092408124));
#1705=CARTESIAN_POINT('',(15.7499974487199,285.094887518255,347.41393661499));
#1706=CARTESIAN_POINT('Origin',(15.7499974487199,288.505425237982,347.525852203369));
#1707=CARTESIAN_POINT('',(12.4999972103013,291.915962957709,345.137767791748));
#1708=CARTESIAN_POINT('',(12.4999972103013,289.324720099129,346.952175719714));
#1709=CARTESIAN_POINT('',(18.9999976871385,291.915962957709,345.137767791748));
#1710=CARTESIAN_POINT('',(15.7499974487199,291.915962957709,345.137767791748));
#1711=CARTESIAN_POINT('',(18.9999976871385,289.066695704484,347.132846360331));
#1712=CARTESIAN_POINT('Origin',(15.7499974487199,291.915962957709,343.887767791748));
#1713=CARTESIAN_POINT('',(18.9999976871385,291.915962957709,342.637767791748));
#1714=CARTESIAN_POINT('',(12.4999972103013,291.915962957709,342.637767791748));
#1715=CARTESIAN_POINT('',(15.7499974487199,291.915962957709,342.637767791748));
#1716=CARTESIAN_POINT('',(18.9999976871385,291.915962957709,344.118007996503));
#1717=CARTESIAN_POINT('',(12.4999972103013,291.915962957709,343.983601808548));
#1718=CARTESIAN_POINT('Origin',(15.7499974487199,288.505425237982,345.025852203369));
#1719=CARTESIAN_POINT('',(18.9999976871385,288.479387800433,345.044083814874));
#1720=CARTESIAN_POINT('',(12.4999972103013,288.737412195079,344.863413174257));
#1721=CARTESIAN_POINT('Origin',(15.3299974201097,283.222904562323,345.269546508789));
#1722=CARTESIAN_POINT('',(12.4999972103013,285.992451452582,342.499999493264));
#1723=CARTESIAN_POINT('',(12.4999972103013,282.14320638117,346.349244280978));
#1724=CARTESIAN_POINT('',(12.4999972103013,284.848254350915,343.644196510601));
#1725=CARTESIAN_POINT('',(18.9999976871385,285.992451452582,342.500000249807));
#1726=CARTESIAN_POINT('',(15.7274974906504,285.992451452582,342.499999868916));
#1727=CARTESIAN_POINT('',(18.9999976871385,284.635842066637,343.856609535767));
#1728=CARTESIAN_POINT('',(13.4185859820064,281.22461799035,347.267832711013));
#1729=CARTESIAN_POINT('Origin',(15.7499974487199,292.82087876734,346.312816619873));
#1730=CARTESIAN_POINT('',(18.9999976871385,291.649306082098,348.156852722168));
#1731=CARTESIAN_POINT('',(12.4999972103013,291.649306082098,348.156852722168));
#1732=CARTESIAN_POINT('',(15.7499974487199,291.649306082098,348.156852722168));
#1733=CARTESIAN_POINT('',(18.9999976871385,293.992451452582,344.468780517578));
#1734=CARTESIAN_POINT('',(18.9999976871385,292.565614337167,346.714598626913));
#1735=CARTESIAN_POINT('',(12.4999972103013,293.992451452582,344.468780517578));
#1736=CARTESIAN_POINT('',(15.9374975083246,293.992451452582,344.468780517578));
#1737=CARTESIAN_POINT('',(12.4999972103013,292.709966082074,346.487391358947));
#1738=CARTESIAN_POINT('Origin',(15.7499974487199,289.149683737127,350.656475067139));
#1739=CARTESIAN_POINT('',(18.9999976871385,290.427658286589,349.378500517677));
#1740=CARTESIAN_POINT('',(12.4999972103013,290.640070938437,349.166087865829));
#1741=CARTESIAN_POINT('Origin',(13.0749972579851,281.568206571905,350.040170669556));
#1742=CARTESIAN_POINT('',(12.4999972103013,282.14320638117,347.059803247452));
#1743=CARTESIAN_POINT('Origin',(16.4999975894143,289.992451655007,316.508302104611));
#1744=CARTESIAN_POINT('',(13.4999977026436,289.992451656793,317.5));
#1745=CARTESIAN_POINT('',(13.4999977001163,289.992451655007,316.508302112257));
#1746=CARTESIAN_POINT('Origin',(16.4999975919416,289.992451656793,317.5));
#1747=CARTESIAN_POINT('Origin',(15.4999976871385,285.146043562262,338.422561645508));
#1748=CARTESIAN_POINT('',(15.4999976871385,285.992451452582,341.190246582031));
#1749=CARTESIAN_POINT('',(15.4999976871385,284.25572087702,337.5));
#1750=CARTESIAN_POINT('',(15.4999976871385,284.861513731852,338.787203117985));
#1751=CARTESIAN_POINT('',(15.4999976871385,285.992451452582,337.5));
#1752=CARTESIAN_POINT('',(15.4999976871385,285.992451452582,339.047561645508));
#1753=CARTESIAN_POINT('',(15.4999976871385,285.825107995042,337.5));
#1754=CARTESIAN_POINT('',(15.4999976871385,284.717669033377,337.5));
#1755=CARTESIAN_POINT('Origin',(16.4999976871385,284.950413107245,338.976098632812));
#1756=CARTESIAN_POINT('',(16.1589142797365,284.25572087702,337.5));
#1757=CARTESIAN_POINT('',(17.4999976871385,284.25572087702,337.5));
#1758=CARTESIAN_POINT('',(16.7804318783655,284.25572087702,337.5));
#1759=CARTESIAN_POINT('',(17.4999976871385,285.992451452582,341.190246582031));
#1760=CARTESIAN_POINT('',(17.4999976871385,284.861513731852,338.787203117985));
#1761=CARTESIAN_POINT('',(16.3124976275339,285.992451452582,341.190246582031));
#1762=CARTESIAN_POINT('Origin',(17.4999976871385,285.146043562262,338.422561645508));
#1763=CARTESIAN_POINT('',(17.4999976871385,284.712507032721,337.5));
#1764=CARTESIAN_POINT('',(17.4999976871385,285.992451452582,337.5));
#1765=CARTESIAN_POINT('',(17.4999976871385,285.732407752045,337.5));
#1766=CARTESIAN_POINT('',(17.4999976871385,285.992451452582,339.047561645508));
#1767=CARTESIAN_POINT('Origin',(16.1249975679292,285.992451452582,339.672561645508));
#1768=CARTESIAN_POINT('',(12.4999972103013,285.992451452582,337.5));
#1769=CARTESIAN_POINT('',(14.5209812142426,285.992451452582,337.5));
#1770=CARTESIAN_POINT('',(18.9999976871385,285.992451452582,337.5));
#1771=CARTESIAN_POINT('',(17.8822922029072,285.992451452582,337.5));
#1772=CARTESIAN_POINT('',(18.9999976871385,285.992451452582,342.010404923383));
#1773=CARTESIAN_POINT('',(12.4999972103013,285.992451452582,341.875998735428));
#1774=CARTESIAN_POINT('Origin',(19.7499976871385,289.992451452582,341.190246582031));
#1775=CARTESIAN_POINT('',(20.4999976871385,288.992451452582,341.190246582031));
#1776=CARTESIAN_POINT('',(18.9999976871385,288.992451452582,341.190246582031));
#1777=CARTESIAN_POINT('',(20.1635606525316,288.992451452582,341.190246582031));
#1778=CARTESIAN_POINT('',(20.4999976871385,290.992451452582,341.190246582031));
#1779=CARTESIAN_POINT('',(20.4999976871385,289.992451452582,341.190246582031));
#1780=CARTESIAN_POINT('',(18.9999976871385,290.992451452582,341.190246582031));
#1781=CARTESIAN_POINT('',(20.1635606525316,290.992451452582,341.190246582031));
#1782=CARTESIAN_POINT('',(18.9999976871385,288.972903260838,341.190246582031));
#1783=CARTESIAN_POINT('Origin',(20.5771236179246,288.992451452582,338.976098632812));
#1784=CARTESIAN_POINT('',(18.9999976871385,288.992451452582,337.5));
#1785=CARTESIAN_POINT('',(20.1083552279049,288.992451452582,337.5));
#1786=CARTESIAN_POINT('',(22.2367273090257,288.992451452582,337.5));
#1787=CARTESIAN_POINT('',(21.385632061757,288.992451452582,337.5));
#1788=CARTESIAN_POINT('',(21.4545529047826,288.992451452582,339.161983756961));
#1789=CARTESIAN_POINT('',(18.9999976871385,288.992451452582,341.662173417035));
#1790=CARTESIAN_POINT('Origin',(20.5771236179246,290.992451452582,338.976098632812));
#1791=CARTESIAN_POINT('',(18.9999976871385,290.992451452582,337.5));
#1792=CARTESIAN_POINT('',(18.9999976871385,290.992451452582,341.662173417035));
#1793=CARTESIAN_POINT('',(22.2367273090257,290.992451452582,337.5));
#1794=CARTESIAN_POINT('',(21.4545529047826,290.992451452582,339.161983756961));
#1795=CARTESIAN_POINT('',(21.385632061757,290.992451452582,337.5));
#1796=CARTESIAN_POINT('',(20.1083552279049,290.992451452582,337.5));
#1797=CARTESIAN_POINT('Origin',(18.9999976871385,287.953355069094,344.348248201258));
#1798=CARTESIAN_POINT('',(18.9999976871385,287.136063505462,337.5));
#1799=CARTESIAN_POINT('',(18.9999976871385,293.992451452582,337.5));
#1800=CARTESIAN_POINT('',(18.9999976871385,290.809742936741,337.5));
#1801=CARTESIAN_POINT('',(18.9999976871385,293.992451452582,342.25650248808));
#1802=CARTESIAN_POINT('Origin',(17.4999976871385,294.838858389227,338.422561645508));
#1803=CARTESIAN_POINT('',(17.4999976871385,293.992451452582,337.5));
#1804=CARTESIAN_POINT('',(17.4999976871385,294.252494596808,337.5));
#1805=CARTESIAN_POINT('',(17.4999976871385,295.729180120794,337.5));
#1806=CARTESIAN_POINT('',(17.4999976871385,295.272394441931,337.5));
#1807=CARTESIAN_POINT('',(17.4999976871385,293.992451452582,341.190246582031));
#1808=CARTESIAN_POINT('',(17.4999976871385,295.123388003448,338.787202964618));
#1809=CARTESIAN_POINT('',(17.4999976871385,293.992451452582,339.293659210205));
#1810=CARTESIAN_POINT('Origin',(15.4999976871385,294.838858389227,338.422561645508));
#1811=CARTESIAN_POINT('',(15.4999976871385,293.992451452582,341.190246582031));
#1812=CARTESIAN_POINT('',(15.4999976871385,293.992451452582,337.5));
#1813=CARTESIAN_POINT('',(15.4999976871385,293.992451452582,339.293659210205));
#1814=CARTESIAN_POINT('',(15.4999976871385,295.729180120794,337.5));
#1815=CARTESIAN_POINT('',(15.4999976871385,295.123388003448,338.787202964618));
#1816=CARTESIAN_POINT('',(15.4999976871385,295.267232679693,337.5));
#1817=CARTESIAN_POINT('',(15.4999976871385,294.159794512757,337.5));
#1818=CARTESIAN_POINT('Origin',(16.1249975679292,293.992451452582,340.164756774902));
#1819=CARTESIAN_POINT('',(12.4999972103013,293.992451452582,337.5));
#1820=CARTESIAN_POINT('',(12.4999972103013,293.992451452582,342.122096300125));
#1821=CARTESIAN_POINT('',(17.8822922029072,293.992451452582,337.5));
#1822=CARTESIAN_POINT('',(16.3124976275339,293.992451452582,341.190246582031));
#1823=CARTESIAN_POINT('',(14.5209812142426,293.992451452582,337.5));
#1824=CARTESIAN_POINT('Origin',(11.6535897670164,290.992451452582,338.422561645508));
#1825=CARTESIAN_POINT('',(12.4999972103013,290.992451452582,341.190246582031));
#1826=CARTESIAN_POINT('',(10.7632674692049,290.992451452582,337.5));
#1827=CARTESIAN_POINT('',(11.3690600040891,290.992451452582,338.787203056628));
#1828=CARTESIAN_POINT('',(12.4999972103013,290.992451452582,337.5));
#1829=CARTESIAN_POINT('',(12.4999972103013,290.992451452582,341.250998735428));
#1830=CARTESIAN_POINT('',(12.2852773137861,290.992451452582,337.5));
#1831=CARTESIAN_POINT('',(11.2219906417503,290.992451452582,337.5));
#1832=CARTESIAN_POINT('Origin',(12.4999972103013,288.534193300573,344.079435825348));
#1833=CARTESIAN_POINT('',(12.4999972103013,291.00746196843,337.5));
#1834=CARTESIAN_POINT('',(12.4999972103013,288.992451452582,341.190246582031));
#1835=CARTESIAN_POINT('',(12.4999972103013,289.263322376578,341.190246582031));
#1836=CARTESIAN_POINT('',(12.4999972103013,288.992451452582,337.5));
#1837=CARTESIAN_POINT('',(12.4999972103013,288.992451452582,341.250998735428));
#1838=CARTESIAN_POINT('',(12.4999972103013,287.519182864198,337.5));
#1839=CARTESIAN_POINT('Origin',(11.6535897670164,288.992451452582,338.422561645508));
#1840=CARTESIAN_POINT('',(10.7632674692049,288.992451452582,337.5));
#1841=CARTESIAN_POINT('',(11.2219906417503,288.992451452582,337.5));
#1842=CARTESIAN_POINT('',(12.2852773137861,288.992451452582,337.5));
#1843=CARTESIAN_POINT('',(11.3690600040891,288.992451452582,338.787203056628));
#1844=CARTESIAN_POINT('Origin',(16.4207292367213,289.992451592144,317.5));
#1845=CARTESIAN_POINT('Origin',(10.7903915164842,289.370824121802,337.5));
#1846=CARTESIAN_POINT('',(10.7632674692049,289.681637787192,337.5));
#1847=CARTESIAN_POINT('Origin',(12.9169648605559,286.504172427822,337.5));
#1848=CARTESIAN_POINT('Origin',(15.8178308723344,284.289294504492,337.5));
#1849=CARTESIAN_POINT('Origin',(17.0608660695924,284.27897050318,337.5));
#1850=CARTESIAN_POINT('Origin',(19.6395868378852,286.318771941829,337.5));
#1851=CARTESIAN_POINT('Origin',(22.1941405055894,289.250073217718,337.5));
#1852=CARTESIAN_POINT('',(22.2367273090257,289.62126233515,337.5));
#1853=CARTESIAN_POINT('Origin',(21.5420354602708,289.992451452582,338.976098632812));
#1854=CARTESIAN_POINT('',(22.2367273090257,290.363640570013,337.5));
#1855=CARTESIAN_POINT('Origin',(22.1941405055894,290.734829687445,337.5));
#1856=CARTESIAN_POINT('Origin',(19.6395868378852,293.666130804388,337.5));
#1857=CARTESIAN_POINT('Origin',(17.0608660695924,295.705930494635,337.5));
#1858=CARTESIAN_POINT('',(16.7804318783655,295.729180120794,337.5));
#1859=CARTESIAN_POINT('Origin',(16.4999976871385,295.034488653509,338.976098632812));
#1860=CARTESIAN_POINT('',(16.1589142797365,295.729180120794,337.5));
#1861=CARTESIAN_POINT('Origin',(15.8178308723344,295.69560697016,337.5));
#1862=CARTESIAN_POINT('Origin',(12.9169648605559,293.480730636287,337.5));
#1863=CARTESIAN_POINT('Origin',(10.7903915164842,290.614078783362,337.5));
#1864=CARTESIAN_POINT('',(10.7632674692049,290.303265117972,337.5));
#1865=CARTESIAN_POINT('Origin',(11.4579593656434,289.992451452582,338.976098632812));
#1866=CARTESIAN_POINT('Origin',(16.6449020581041,289.992451386811,335.));
#1867=UNCERTAINTY_MEASURE_WITH_UNIT(LENGTH_MEASURE(0.01),#1871,
'DISTANCE_ACCURACY_VALUE',
'Maximum model space distance between geometric entities at asserted c
onnectivities');
#1868=UNCERTAINTY_MEASURE_WITH_UNIT(LENGTH_MEASURE(0.01),#1871,
'DISTANCE_ACCURACY_VALUE',
'Maximum model space distance between geometric entities at asserted c
onnectivities');
#1869=(
GEOMETRIC_REPRESENTATION_CONTEXT(3)
GLOBAL_UNCERTAINTY_ASSIGNED_CONTEXT((#1867))
GLOBAL_UNIT_ASSIGNED_CONTEXT((#1871,#1873,#1874))
REPRESENTATION_CONTEXT('','3D')
);
#1870=(
GEOMETRIC_REPRESENTATION_CONTEXT(3)
GLOBAL_UNCERTAINTY_ASSIGNED_CONTEXT((#1868))
GLOBAL_UNIT_ASSIGNED_CONTEXT((#1871,#1873,#1874))
REPRESENTATION_CONTEXT('','3D')
);
#1871=(
LENGTH_UNIT()
NAMED_UNIT(*)
SI_UNIT(.MILLI.,.METRE.)
);
#1872=(
LENGTH_UNIT()
NAMED_UNIT(*)
SI_UNIT($,.METRE.)
);
#1873=(
NAMED_UNIT(*)
PLANE_ANGLE_UNIT()
SI_UNIT($,.RADIAN.)
);
#1874=(
NAMED_UNIT(*)
SI_UNIT($,.STERADIAN.)
SOLID_ANGLE_UNIT()
);
#1875=SHAPE_DEFINITION_REPRESENTATION(#1876,#1877);
#1876=PRODUCT_DEFINITION_SHAPE('',$,#1879);
#1877=SHAPE_REPRESENTATION('',(#1097),#1869);
#1878=PRODUCT_DEFINITION_CONTEXT('part definition',#1883,'design');
#1879=PRODUCT_DEFINITION('2026-09-20-16-28-28-648','(\X2\672A4FDD5B58\X0\)',
#1880,#1878);
#1880=PRODUCT_DEFINITION_FORMATION('',$,#1885);
#1881=PRODUCT_RELATED_PRODUCT_CATEGORY('(\X2\672A4FDD5B58\X0\)',
'(\X2\672A4FDD5B58\X0\)',(#1885));
#1882=APPLICATION_PROTOCOL_DEFINITION('international standard',
'automotive_design',2009,#1883);
#1883=APPLICATION_CONTEXT(
'Core Data for Automotive Mechanical Design Process');
#1884=PRODUCT_CONTEXT('part definition',#1883,'mechanical');
#1885=PRODUCT('2026-09-20-16-28-28-648','(\X2\672A4FDD5B58\X0\)',$,(#1884));
#1886=PRESENTATION_STYLE_ASSIGNMENT((#1888));
#1887=PRESENTATION_STYLE_ASSIGNMENT((#1889));
#1888=SURFACE_STYLE_USAGE(.BOTH.,#1890);
#1889=SURFACE_STYLE_USAGE(.BOTH.,#1891);
#1890=SURFACE_SIDE_STYLE('',(#1892));
#1891=SURFACE_SIDE_STYLE('',(#1893));
#1892=SURFACE_STYLE_FILL_AREA(#1894);
#1893=SURFACE_STYLE_FILL_AREA(#1895);
#1894=FILL_AREA_STYLE('\X2\94A2\X0\ - \X2\7F0E5149\X0\',(#1896));
#1895=FILL_AREA_STYLE('Opaque(160,160,160)',(#1897));
#1896=FILL_AREA_STYLE_COLOUR('\X2\94A2\X0\ - \X2\7F0E5149\X0\',#1898);
#1897=FILL_AREA_STYLE_COLOUR('Opaque(160,160,160)',#1899);
#1898=COLOUR_RGB('\X2\94A2\X0\ - \X2\7F0E5149\X0\',0.627450980392157,0.627450980392157,
0.627450980392157);
#1899=COLOUR_RGB('Opaque(160,160,160)',0.627450980392157,0.627450980392157,
0.627450980392157);
ENDSEC;
END-ISO-10303-21;
