ISO-10303-21;
HEADER;
/* Generated by software containing ST-Developer
 * from STEP Tools, Inc. (www.steptools.com) 
 */

FILE_DESCRIPTION(
/* description */ ('STEP AP214'),
/* implementation_level */ '2;1');

FILE_NAME(
/* name */ '',
/* time_stamp */ '2026-09-04T12:16:52+08:00',
/* author */ (''),
/* organization */ (''),
/* preprocessor_version */ 'ST-DEVELOPER v20.1',
/* originating_system */ 'Autodesk Translation Framework v15.8.0.0',
/* authorisation */ '');

FILE_SCHEMA (('AUTOMOTIVE_DESIGN { 1 0 10303 214 3 1 1 }'));
ENDSEC;

DATA;
#10=MECHANICAL_DESIGN_GEOMETRIC_PRESENTATION_REPRESENTATION('',(#13),#633);
#11=SHAPE_REPRESENTATION_RELATIONSHIP('SRR','None',#640,#12);
#12=ADVANCED_BREP_SHAPE_REPRESENTATION('',(#14),#632);
#13=STYLED_ITEM('',(#650),#14);
#14=MANIFOLD_SOLID_BREP('\X2\5B9E4F53\X0\3',#397);
#15=FACE_BOUND('',#44,.T.);
#16=FACE_BOUND('',#54,.T.);
#17=FACE_OUTER_BOUND('',#35,.T.);
#18=FACE_OUTER_BOUND('',#36,.T.);
#19=FACE_OUTER_BOUND('',#37,.T.);
#20=FACE_OUTER_BOUND('',#38,.T.);
#21=FACE_OUTER_BOUND('',#39,.T.);
#22=FACE_OUTER_BOUND('',#40,.T.);
#23=FACE_OUTER_BOUND('',#41,.T.);
#24=FACE_OUTER_BOUND('',#42,.T.);
#25=FACE_OUTER_BOUND('',#43,.T.);
#26=FACE_OUTER_BOUND('',#45,.T.);
#27=FACE_OUTER_BOUND('',#46,.T.);
#28=FACE_OUTER_BOUND('',#47,.T.);
#29=FACE_OUTER_BOUND('',#48,.T.);
#30=FACE_OUTER_BOUND('',#49,.T.);
#31=FACE_OUTER_BOUND('',#50,.T.);
#32=FACE_OUTER_BOUND('',#51,.T.);
#33=FACE_OUTER_BOUND('',#52,.T.);
#34=FACE_OUTER_BOUND('',#53,.T.);
#35=EDGE_LOOP('',(#253,#254,#255,#256));
#36=EDGE_LOOP('',(#257,#258,#259,#260));
#37=EDGE_LOOP('',(#261,#262,#263,#264,#265,#266,#267,#268));
#38=EDGE_LOOP('',(#269,#270,#271,#272));
#39=EDGE_LOOP('',(#273,#274,#275,#276,#277,#278));
#40=EDGE_LOOP('',(#279,#280,#281,#282,#283,#284,#285,#286));
#41=EDGE_LOOP('',(#287,#288,#289,#290,#291,#292));
#42=EDGE_LOOP('',(#293,#294,#295,#296,#297,#298));
#43=EDGE_LOOP('',(#299,#300,#301,#302,#303));
#44=EDGE_LOOP('',(#304,#305,#306,#307,#308,#309,#310,#311,#312,#313,#314));
#45=EDGE_LOOP('',(#315,#316,#317,#318));
#46=EDGE_LOOP('',(#319,#320,#321,#322,#323,#324));
#47=EDGE_LOOP('',(#325,#326,#327,#328,#329,#330));
#48=EDGE_LOOP('',(#331,#332,#333,#334));
#49=EDGE_LOOP('',(#335,#336,#337,#338));
#50=EDGE_LOOP('',(#339,#340,#341,#342));
#51=EDGE_LOOP('',(#343,#344,#345,#346));
#52=EDGE_LOOP('',(#347,#348,#349,#350));
#53=EDGE_LOOP('',(#351,#352,#353,#354,#355));
#54=EDGE_LOOP('',(#356,#357,#358,#359,#360));
#55=LINE('',#525,#109);
#56=LINE('',#527,#110);
#57=LINE('',#529,#111);
#58=LINE('',#530,#112);
#59=LINE('',#534,#113);
#60=LINE('',#536,#114);
#61=LINE('',#538,#115);
#62=LINE('',#539,#116);
#63=LINE('',#542,#117);
#64=LINE('',#544,#118);
#65=LINE('',#546,#119);
#66=LINE('',#548,#120);
#67=LINE('',#549,#121);
#68=LINE('',#550,#122);
#69=LINE('',#552,#123);
#70=LINE('',#556,#124);
#71=LINE('',#558,#125);
#72=LINE('',#560,#126);
#73=LINE('',#561,#127);
#74=LINE('',#562,#128);
#75=LINE('',#565,#129);
#76=LINE('',#567,#130);
#77=LINE('',#568,#131);
#78=LINE('',#569,#132);
#79=LINE('',#572,#133);
#80=LINE('',#574,#134);
#81=LINE('',#576,#135);
#82=LINE('',#577,#136);
#83=LINE('',#580,#137);
#84=LINE('',#582,#138);
#85=LINE('',#584,#139);
#86=LINE('',#585,#140);
#87=LINE('',#589,#141);
#88=LINE('',#591,#142);
#89=LINE('',#593,#143);
#90=LINE('',#595,#144);
#91=LINE('',#596,#145);
#92=LINE('',#597,#146);
#93=LINE('',#599,#147);
#94=LINE('',#600,#148);
#95=LINE('',#603,#149);
#96=LINE('',#604,#150);
#97=LINE('',#606,#151);
#98=LINE('',#608,#152);
#99=LINE('',#611,#153);
#100=LINE('',#613,#154);
#101=LINE('',#614,#155);
#102=LINE('',#617,#156);
#103=LINE('',#618,#157);
#104=LINE('',#621,#158);
#105=LINE('',#622,#159);
#106=LINE('',#625,#160);
#107=LINE('',#626,#161);
#108=LINE('',#628,#162);
#109=VECTOR('',#433,10.);
#110=VECTOR('',#434,10.);
#111=VECTOR('',#435,10.);
#112=VECTOR('',#436,10.);
#113=VECTOR('',#439,10.);
#114=VECTOR('',#440,10.);
#115=VECTOR('',#441,10.);
#116=VECTOR('',#442,10.);
#117=VECTOR('',#445,10.);
#118=VECTOR('',#446,10.);
#119=VECTOR('',#447,10.);
#120=VECTOR('',#448,10.);
#121=VECTOR('',#449,10.);
#122=VECTOR('',#450,10.);
#123=VECTOR('',#453,10.);
#124=VECTOR('',#456,10.);
#125=VECTOR('',#457,10.);
#126=VECTOR('',#458,10.);
#127=VECTOR('',#459,10.);
#128=VECTOR('',#460,10.);
#129=VECTOR('',#463,10.);
#130=VECTOR('',#464,10.);
#131=VECTOR('',#465,10.);
#132=VECTOR('',#466,10.);
#133=VECTOR('',#469,10.);
#134=VECTOR('',#470,10.);
#135=VECTOR('',#471,10.);
#136=VECTOR('',#472,12.);
#137=VECTOR('',#475,10.);
#138=VECTOR('',#476,10.);
#139=VECTOR('',#477,10.);
#140=VECTOR('',#478,12.);
#141=VECTOR('',#481,1200.);
#142=VECTOR('',#482,1200.);
#143=VECTOR('',#483,1200.);
#144=VECTOR('',#484,1200.);
#145=VECTOR('',#485,1200.);
#146=VECTOR('',#486,12.);
#147=VECTOR('',#487,12.);
#148=VECTOR('',#488,12.);
#149=VECTOR('',#491,10.);
#150=VECTOR('',#492,10.);
#151=VECTOR('',#495,10.);
#152=VECTOR('',#498,10.);
#153=VECTOR('',#501,10.);
#154=VECTOR('',#502,10.);
#155=VECTOR('',#503,10.);
#156=VECTOR('',#506,10.);
#157=VECTOR('',#507,10.);
#158=VECTOR('',#510,10.);
#159=VECTOR('',#511,10.);
#160=VECTOR('',#514,10.);
#161=VECTOR('',#515,10.);
#162=VECTOR('',#518,10.);
#163=VERTEX_POINT('',#523);
#164=VERTEX_POINT('',#524);
#165=VERTEX_POINT('',#526);
#166=VERTEX_POINT('',#528);
#167=VERTEX_POINT('',#532);
#168=VERTEX_POINT('',#533);
#169=VERTEX_POINT('',#535);
#170=VERTEX_POINT('',#537);
#171=VERTEX_POINT('',#541);
#172=VERTEX_POINT('',#543);
#173=VERTEX_POINT('',#545);
#174=VERTEX_POINT('',#547);
#175=VERTEX_POINT('',#554);
#176=VERTEX_POINT('',#555);
#177=VERTEX_POINT('',#557);
#178=VERTEX_POINT('',#559);
#179=VERTEX_POINT('',#564);
#180=VERTEX_POINT('',#566);
#181=VERTEX_POINT('',#571);
#182=VERTEX_POINT('',#573);
#183=VERTEX_POINT('',#575);
#184=VERTEX_POINT('',#579);
#185=VERTEX_POINT('',#581);
#186=VERTEX_POINT('',#583);
#187=VERTEX_POINT('',#587);
#188=VERTEX_POINT('',#588);
#189=VERTEX_POINT('',#590);
#190=VERTEX_POINT('',#592);
#191=VERTEX_POINT('',#594);
#192=VERTEX_POINT('',#598);
#193=VERTEX_POINT('',#602);
#194=VERTEX_POINT('',#610);
#195=VERTEX_POINT('',#612);
#196=VERTEX_POINT('',#616);
#197=VERTEX_POINT('',#620);
#198=VERTEX_POINT('',#624);
#199=EDGE_CURVE('',#163,#164,#55,.T.);
#200=EDGE_CURVE('',#165,#163,#56,.T.);
#201=EDGE_CURVE('',#166,#165,#57,.T.);
#202=EDGE_CURVE('',#166,#164,#58,.T.);
#203=EDGE_CURVE('',#167,#168,#59,.T.);
#204=EDGE_CURVE('',#167,#169,#60,.T.);
#205=EDGE_CURVE('',#169,#170,#61,.T.);
#206=EDGE_CURVE('',#168,#170,#62,.T.);
#207=EDGE_CURVE('',#171,#163,#63,.T.);
#208=EDGE_CURVE('',#172,#171,#64,.T.);
#209=EDGE_CURVE('',#172,#173,#65,.T.);
#210=EDGE_CURVE('',#174,#173,#66,.T.);
#211=EDGE_CURVE('',#168,#174,#67,.T.);
#212=EDGE_CURVE('',#170,#165,#68,.T.);
#213=EDGE_CURVE('',#169,#166,#69,.T.);
#214=EDGE_CURVE('',#175,#176,#70,.T.);
#215=EDGE_CURVE('',#175,#177,#71,.T.);
#216=EDGE_CURVE('',#178,#177,#72,.T.);
#217=EDGE_CURVE('',#173,#178,#73,.T.);
#218=EDGE_CURVE('',#176,#172,#74,.T.);
#219=EDGE_CURVE('',#164,#179,#75,.T.);
#220=EDGE_CURVE('',#180,#167,#76,.T.);
#221=EDGE_CURVE('',#177,#180,#77,.T.);
#222=EDGE_CURVE('',#179,#175,#78,.T.);
#223=EDGE_CURVE('',#176,#181,#79,.T.);
#224=EDGE_CURVE('',#182,#181,#80,.T.);
#225=EDGE_CURVE('',#183,#182,#81,.T.);
#226=EDGE_CURVE('',#183,#179,#82,.T.);
#227=EDGE_CURVE('',#178,#184,#83,.T.);
#228=EDGE_CURVE('',#185,#184,#84,.T.);
#229=EDGE_CURVE('',#186,#185,#85,.T.);
#230=EDGE_CURVE('',#186,#174,#86,.T.);
#231=EDGE_CURVE('',#187,#188,#87,.T.);
#232=EDGE_CURVE('',#189,#187,#88,.T.);
#233=EDGE_CURVE('',#190,#189,#89,.T.);
#234=EDGE_CURVE('',#191,#190,#90,.T.);
#235=EDGE_CURVE('',#188,#191,#91,.T.);
#236=EDGE_CURVE('',#180,#183,#92,.T.);
#237=EDGE_CURVE('',#192,#186,#93,.T.);
#238=EDGE_CURVE('',#171,#192,#94,.T.);
#239=EDGE_CURVE('',#193,#185,#95,.T.);
#240=EDGE_CURVE('',#192,#193,#96,.T.);
#241=EDGE_CURVE('',#181,#193,#97,.T.);
#242=EDGE_CURVE('',#184,#182,#98,.T.);
#243=EDGE_CURVE('',#188,#194,#99,.T.);
#244=EDGE_CURVE('',#195,#194,#100,.T.);
#245=EDGE_CURVE('',#187,#195,#101,.T.);
#246=EDGE_CURVE('',#196,#195,#102,.T.);
#247=EDGE_CURVE('',#189,#196,#103,.T.);
#248=EDGE_CURVE('',#197,#196,#104,.T.);
#249=EDGE_CURVE('',#190,#197,#105,.T.);
#250=EDGE_CURVE('',#198,#197,#106,.T.);
#251=EDGE_CURVE('',#191,#198,#107,.T.);
#252=EDGE_CURVE('',#194,#198,#108,.T.);
#253=ORIENTED_EDGE('',*,*,#199,.F.);
#254=ORIENTED_EDGE('',*,*,#200,.F.);
#255=ORIENTED_EDGE('',*,*,#201,.F.);
#256=ORIENTED_EDGE('',*,*,#202,.T.);
#257=ORIENTED_EDGE('',*,*,#203,.F.);
#258=ORIENTED_EDGE('',*,*,#204,.T.);
#259=ORIENTED_EDGE('',*,*,#205,.T.);
#260=ORIENTED_EDGE('',*,*,#206,.F.);
#261=ORIENTED_EDGE('',*,*,#207,.F.);
#262=ORIENTED_EDGE('',*,*,#208,.F.);
#263=ORIENTED_EDGE('',*,*,#209,.T.);
#264=ORIENTED_EDGE('',*,*,#210,.F.);
#265=ORIENTED_EDGE('',*,*,#211,.F.);
#266=ORIENTED_EDGE('',*,*,#206,.T.);
#267=ORIENTED_EDGE('',*,*,#212,.T.);
#268=ORIENTED_EDGE('',*,*,#200,.T.);
#269=ORIENTED_EDGE('',*,*,#213,.T.);
#270=ORIENTED_EDGE('',*,*,#201,.T.);
#271=ORIENTED_EDGE('',*,*,#212,.F.);
#272=ORIENTED_EDGE('',*,*,#205,.F.);
#273=ORIENTED_EDGE('',*,*,#214,.F.);
#274=ORIENTED_EDGE('',*,*,#215,.T.);
#275=ORIENTED_EDGE('',*,*,#216,.F.);
#276=ORIENTED_EDGE('',*,*,#217,.F.);
#277=ORIENTED_EDGE('',*,*,#209,.F.);
#278=ORIENTED_EDGE('',*,*,#218,.F.);
#279=ORIENTED_EDGE('',*,*,#219,.F.);
#280=ORIENTED_EDGE('',*,*,#202,.F.);
#281=ORIENTED_EDGE('',*,*,#213,.F.);
#282=ORIENTED_EDGE('',*,*,#204,.F.);
#283=ORIENTED_EDGE('',*,*,#220,.F.);
#284=ORIENTED_EDGE('',*,*,#221,.F.);
#285=ORIENTED_EDGE('',*,*,#215,.F.);
#286=ORIENTED_EDGE('',*,*,#222,.F.);
#287=ORIENTED_EDGE('',*,*,#222,.T.);
#288=ORIENTED_EDGE('',*,*,#214,.T.);
#289=ORIENTED_EDGE('',*,*,#223,.T.);
#290=ORIENTED_EDGE('',*,*,#224,.F.);
#291=ORIENTED_EDGE('',*,*,#225,.F.);
#292=ORIENTED_EDGE('',*,*,#226,.T.);
#293=ORIENTED_EDGE('',*,*,#210,.T.);
#294=ORIENTED_EDGE('',*,*,#217,.T.);
#295=ORIENTED_EDGE('',*,*,#227,.T.);
#296=ORIENTED_EDGE('',*,*,#228,.F.);
#297=ORIENTED_EDGE('',*,*,#229,.F.);
#298=ORIENTED_EDGE('',*,*,#230,.T.);
#299=ORIENTED_EDGE('',*,*,#231,.F.);
#300=ORIENTED_EDGE('',*,*,#232,.F.);
#301=ORIENTED_EDGE('',*,*,#233,.F.);
#302=ORIENTED_EDGE('',*,*,#234,.F.);
#303=ORIENTED_EDGE('',*,*,#235,.F.);
#304=ORIENTED_EDGE('',*,*,#219,.T.);
#305=ORIENTED_EDGE('',*,*,#226,.F.);
#306=ORIENTED_EDGE('',*,*,#236,.F.);
#307=ORIENTED_EDGE('',*,*,#220,.T.);
#308=ORIENTED_EDGE('',*,*,#203,.T.);
#309=ORIENTED_EDGE('',*,*,#211,.T.);
#310=ORIENTED_EDGE('',*,*,#230,.F.);
#311=ORIENTED_EDGE('',*,*,#237,.F.);
#312=ORIENTED_EDGE('',*,*,#238,.F.);
#313=ORIENTED_EDGE('',*,*,#207,.T.);
#314=ORIENTED_EDGE('',*,*,#199,.T.);
#315=ORIENTED_EDGE('',*,*,#237,.T.);
#316=ORIENTED_EDGE('',*,*,#229,.T.);
#317=ORIENTED_EDGE('',*,*,#239,.F.);
#318=ORIENTED_EDGE('',*,*,#240,.F.);
#319=ORIENTED_EDGE('',*,*,#208,.T.);
#320=ORIENTED_EDGE('',*,*,#238,.T.);
#321=ORIENTED_EDGE('',*,*,#240,.T.);
#322=ORIENTED_EDGE('',*,*,#241,.F.);
#323=ORIENTED_EDGE('',*,*,#223,.F.);
#324=ORIENTED_EDGE('',*,*,#218,.T.);
#325=ORIENTED_EDGE('',*,*,#221,.T.);
#326=ORIENTED_EDGE('',*,*,#236,.T.);
#327=ORIENTED_EDGE('',*,*,#225,.T.);
#328=ORIENTED_EDGE('',*,*,#242,.F.);
#329=ORIENTED_EDGE('',*,*,#227,.F.);
#330=ORIENTED_EDGE('',*,*,#216,.T.);
#331=ORIENTED_EDGE('',*,*,#231,.T.);
#332=ORIENTED_EDGE('',*,*,#243,.T.);
#333=ORIENTED_EDGE('',*,*,#244,.F.);
#334=ORIENTED_EDGE('',*,*,#245,.F.);
#335=ORIENTED_EDGE('',*,*,#232,.T.);
#336=ORIENTED_EDGE('',*,*,#245,.T.);
#337=ORIENTED_EDGE('',*,*,#246,.F.);
#338=ORIENTED_EDGE('',*,*,#247,.F.);
#339=ORIENTED_EDGE('',*,*,#233,.T.);
#340=ORIENTED_EDGE('',*,*,#247,.T.);
#341=ORIENTED_EDGE('',*,*,#248,.F.);
#342=ORIENTED_EDGE('',*,*,#249,.F.);
#343=ORIENTED_EDGE('',*,*,#234,.T.);
#344=ORIENTED_EDGE('',*,*,#249,.T.);
#345=ORIENTED_EDGE('',*,*,#250,.F.);
#346=ORIENTED_EDGE('',*,*,#251,.F.);
#347=ORIENTED_EDGE('',*,*,#235,.T.);
#348=ORIENTED_EDGE('',*,*,#251,.T.);
#349=ORIENTED_EDGE('',*,*,#252,.F.);
#350=ORIENTED_EDGE('',*,*,#243,.F.);
#351=ORIENTED_EDGE('',*,*,#252,.T.);
#352=ORIENTED_EDGE('',*,*,#250,.T.);
#353=ORIENTED_EDGE('',*,*,#248,.T.);
#354=ORIENTED_EDGE('',*,*,#246,.T.);
#355=ORIENTED_EDGE('',*,*,#244,.T.);
#356=ORIENTED_EDGE('',*,*,#228,.T.);
#357=ORIENTED_EDGE('',*,*,#242,.T.);
#358=ORIENTED_EDGE('',*,*,#224,.T.);
#359=ORIENTED_EDGE('',*,*,#241,.T.);
#360=ORIENTED_EDGE('',*,*,#239,.T.);
#361=PLANE('',#411);
#362=PLANE('',#412);
#363=PLANE('',#413);
#364=PLANE('',#414);
#365=PLANE('',#415);
#366=PLANE('',#416);
#367=PLANE('',#417);
#368=PLANE('',#418);
#369=PLANE('',#419);
#370=PLANE('',#420);
#371=PLANE('',#421);
#372=PLANE('',#422);
#373=PLANE('',#423);
#374=PLANE('',#424);
#375=PLANE('',#425);
#376=PLANE('',#426);
#377=PLANE('',#427);
#378=PLANE('',#428);
#379=ADVANCED_FACE('',(#17),#361,.T.);
#380=ADVANCED_FACE('',(#18),#362,.T.);
#381=ADVANCED_FACE('',(#19),#363,.T.);
#382=ADVANCED_FACE('',(#20),#364,.T.);
#383=ADVANCED_FACE('',(#21),#365,.T.);
#384=ADVANCED_FACE('',(#22),#366,.T.);
#385=ADVANCED_FACE('',(#23),#367,.T.);
#386=ADVANCED_FACE('',(#24),#368,.T.);
#387=ADVANCED_FACE('',(#25,#15),#369,.F.);
#388=ADVANCED_FACE('',(#26),#370,.T.);
#389=ADVANCED_FACE('',(#27),#371,.T.);
#390=ADVANCED_FACE('',(#28),#372,.T.);
#391=ADVANCED_FACE('',(#29),#373,.T.);
#392=ADVANCED_FACE('',(#30),#374,.T.);
#393=ADVANCED_FACE('',(#31),#375,.T.);
#394=ADVANCED_FACE('',(#32),#376,.T.);
#395=ADVANCED_FACE('',(#33),#377,.T.);
#396=ADVANCED_FACE('',(#34,#16),#378,.T.);
#397=CLOSED_SHELL('',(#379,#380,#381,#382,#383,#384,#385,#386,#387,#388,
#389,#390,#391,#392,#393,#394,#395,#396));
#398=DERIVED_UNIT_ELEMENT(#400,1.);
#399=DERIVED_UNIT_ELEMENT(#635,-3.);
#400=(
MASS_UNIT()
NAMED_UNIT(*)
SI_UNIT(.KILO.,.GRAM.)
);
#401=DERIVED_UNIT((#398,#399));
#402=MEASURE_REPRESENTATION_ITEM('density measure',
POSITIVE_RATIO_MEASURE(7850.),#401);
#403=PROPERTY_DEFINITION_REPRESENTATION(#408,#405);
#404=PROPERTY_DEFINITION_REPRESENTATION(#409,#406);
#405=REPRESENTATION('material name',(#407),#632);
#406=REPRESENTATION('density',(#402),#632);
#407=DESCRIPTIVE_REPRESENTATION_ITEM('\X2\94A2\X0\','\X2\94A2\X0\');
#408=PROPERTY_DEFINITION('material property','material name',#642);
#409=PROPERTY_DEFINITION('material property','density of part',#642);
#410=AXIS2_PLACEMENT_3D('',#521,#429,#430);
#411=AXIS2_PLACEMENT_3D('',#522,#431,#432);
#412=AXIS2_PLACEMENT_3D('',#531,#437,#438);
#413=AXIS2_PLACEMENT_3D('',#540,#443,#444);
#414=AXIS2_PLACEMENT_3D('',#551,#451,#452);
#415=AXIS2_PLACEMENT_3D('',#553,#454,#455);
#416=AXIS2_PLACEMENT_3D('',#563,#461,#462);
#417=AXIS2_PLACEMENT_3D('',#570,#467,#468);
#418=AXIS2_PLACEMENT_3D('',#578,#473,#474);
#419=AXIS2_PLACEMENT_3D('',#586,#479,#480);
#420=AXIS2_PLACEMENT_3D('',#601,#489,#490);
#421=AXIS2_PLACEMENT_3D('',#605,#493,#494);
#422=AXIS2_PLACEMENT_3D('',#607,#496,#497);
#423=AXIS2_PLACEMENT_3D('',#609,#499,#500);
#424=AXIS2_PLACEMENT_3D('',#615,#504,#505);
#425=AXIS2_PLACEMENT_3D('',#619,#508,#509);
#426=AXIS2_PLACEMENT_3D('',#623,#512,#513);
#427=AXIS2_PLACEMENT_3D('',#627,#516,#517);
#428=AXIS2_PLACEMENT_3D('',#629,#519,#520);
#429=DIRECTION('axis',(0.,0.,1.));
#430=DIRECTION('refdir',(1.,0.,0.));
#431=DIRECTION('center_axis',(0.707106781186548,-0.707106781186547,0.));
#432=DIRECTION('ref_axis',(0.,0.,1.));
#433=DIRECTION('',(0.707106781186547,0.707106781186548,0.));
#434=DIRECTION('',(0.,0.,1.));
#435=DIRECTION('',(-0.707106781186547,-0.707106781186548,0.));
#436=DIRECTION('',(0.,0.,1.));
#437=DIRECTION('center_axis',(-0.707106781186548,0.707106781186547,0.));
#438=DIRECTION('ref_axis',(0.,0.,-1.));
#439=DIRECTION('',(-0.707106781186547,-0.707106781186548,0.));
#440=DIRECTION('',(0.,0.,-1.));
#441=DIRECTION('',(-0.707106781186547,-0.707106781186548,0.));
#442=DIRECTION('',(0.,0.,-1.));
#443=DIRECTION('center_axis',(-0.707106781186547,-0.707106781186548,0.));
#444=DIRECTION('ref_axis',(0.,0.,1.));
#445=DIRECTION('',(0.707106781186548,-0.707106781186547,0.));
#446=DIRECTION('',(0.,0.,-1.));
#447=DIRECTION('',(-0.707106781186547,0.707106781186548,0.));
#448=DIRECTION('',(0.,0.,1.));
#449=DIRECTION('',(0.707106781186548,-0.707106781186547,0.));
#450=DIRECTION('',(0.707106781186547,-0.707106781186548,0.));
#451=DIRECTION('center_axis',(0.,0.,-1.));
#452=DIRECTION('ref_axis',(0.707106781186547,-0.707106781186548,0.));
#453=DIRECTION('',(0.707106781186547,-0.707106781186548,0.));
#454=DIRECTION('center_axis',(0.,0.,1.));
#455=DIRECTION('ref_axis',(-0.707106781186547,0.707106781186548,0.));
#456=DIRECTION('',(-0.0961057543237536,-0.995371128768492,0.));
#457=DIRECTION('',(-0.707106781186547,0.707106781186548,0.));
#458=DIRECTION('',(0.995042430140009,0.0994513057785833,0.));
#459=DIRECTION('',(-0.040449462494772,0.99918158559087,0.));
#460=DIRECTION('',(-0.998618232745251,0.0525511677201638,0.));
#461=DIRECTION('center_axis',(0.707106781186548,0.707106781186547,0.));
#462=DIRECTION('ref_axis',(-0.707106781186547,0.707106781186548,0.));
#463=DIRECTION('',(-0.707106781186547,0.707106781186548,0.));
#464=DIRECTION('',(-0.707106781186547,0.707106781186548,0.));
#465=DIRECTION('',(0.,0.,-1.));
#466=DIRECTION('',(0.,0.,1.));
#467=DIRECTION('center_axis',(-0.995371128768492,0.0961057543237536,0.));
#468=DIRECTION('ref_axis',(-0.0961057543237536,-0.995371128768492,0.));
#469=DIRECTION('',(0.,0.,1.));
#470=DIRECTION('',(-0.0961057543237536,-0.995371128768492,0.));
#471=DIRECTION('',(0.,0.,1.));
#472=DIRECTION('',(-0.0961057543237535,-0.995371128768492,0.));
#473=DIRECTION('center_axis',(0.99918158559087,0.040449462494772,0.));
#474=DIRECTION('ref_axis',(-0.040449462494772,0.99918158559087,0.));
#475=DIRECTION('',(0.,0.,1.));
#476=DIRECTION('',(-0.040449462494772,0.99918158559087,0.));
#477=DIRECTION('',(0.,0.,1.));
#478=DIRECTION('',(-0.040449462494772,0.99918158559087,0.));
#479=DIRECTION('center_axis',(0.,0.,1.));
#480=DIRECTION('ref_axis',(1.,0.,0.));
#481=DIRECTION('',(-0.995042430140009,-0.099451305778583,0.));
#482=DIRECTION('',(0.0961057543237535,0.995371128768492,0.));
#483=DIRECTION('',(0.99861823274525,-0.0525511677201638,0.));
#484=DIRECTION('',(0.707106781186548,-0.707106781186547,0.));
#485=DIRECTION('',(0.0404494624947721,-0.999181585590869,0.));
#486=DIRECTION('',(0.995042430140009,0.0994513057785833,0.));
#487=DIRECTION('',(-0.707106781186548,0.707106781186548,0.));
#488=DIRECTION('',(-0.998618232745251,0.0525511677201638,0.));
#489=DIRECTION('center_axis',(0.707106781186548,0.707106781186547,0.));
#490=DIRECTION('ref_axis',(-0.707106781186547,0.707106781186548,0.));
#491=DIRECTION('',(-0.707106781186547,0.707106781186548,0.));
#492=DIRECTION('',(0.,0.,1.));
#493=DIRECTION('center_axis',(0.0525511677201638,0.998618232745251,0.));
#494=DIRECTION('ref_axis',(-0.998618232745251,0.0525511677201638,0.));
#495=DIRECTION('',(-0.998618232745251,0.0525511677201638,0.));
#496=DIRECTION('center_axis',(0.0994513057785833,-0.995042430140009,0.));
#497=DIRECTION('ref_axis',(0.995042430140009,0.0994513057785833,0.));
#498=DIRECTION('',(0.995042430140009,0.0994513057785833,0.));
#499=DIRECTION('center_axis',(-0.0994513057785835,0.995042430140009,0.));
#500=DIRECTION('ref_axis',(-0.995042430140009,-0.0994513057785835,0.));
#501=DIRECTION('',(0.,0.,1.));
#502=DIRECTION('',(-0.995042430140009,-0.0994513057785835,0.));
#503=DIRECTION('',(0.,0.,1.));
#504=DIRECTION('center_axis',(0.995371128768492,-0.0961057543237539,0.));
#505=DIRECTION('ref_axis',(0.0961057543237539,0.995371128768492,0.));
#506=DIRECTION('',(0.0961057543237539,0.995371128768492,0.));
#507=DIRECTION('',(0.,0.,1.));
#508=DIRECTION('center_axis',(-0.0525511677201637,-0.998618232745251,0.));
#509=DIRECTION('ref_axis',(0.998618232745251,-0.0525511677201637,0.));
#510=DIRECTION('',(0.99861823274525,-0.0525511677201637,0.));
#511=DIRECTION('',(0.,0.,1.));
#512=DIRECTION('center_axis',(-0.707106781186548,-0.707106781186547,0.));
#513=DIRECTION('ref_axis',(0.707106781186547,-0.707106781186548,0.));
#514=DIRECTION('',(0.707106781186547,-0.707106781186548,0.));
#515=DIRECTION('',(0.,0.,1.));
#516=DIRECTION('center_axis',(-0.999181585590869,-0.0404494624947721,0.));
#517=DIRECTION('ref_axis',(0.0404494624947721,-0.999181585590869,0.));
#518=DIRECTION('',(0.0404494624947721,-0.999181585590869,0.));
#519=DIRECTION('center_axis',(0.,0.,1.));
#520=DIRECTION('ref_axis',(1.,0.,0.));
#521=CARTESIAN_POINT('',(0.,0.,0.));
#522=CARTESIAN_POINT('Origin',(74.4044084103044,-15.386297623332,299.500004462898));
#523=CARTESIAN_POINT('',(72.9901948479314,-16.8005111857051,300.));
#524=CARTESIAN_POINT('',(74.4044084103044,-15.386297623332,300.));
#525=CARTESIAN_POINT('',(79.1083750592126,-10.6823309744238,300.));
#526=CARTESIAN_POINT('',(72.9901948479313,-16.8005111857051,299.500004462898));
#527=CARTESIAN_POINT('',(72.9901948479314,-16.8005111857051,299.500004462898));
#528=CARTESIAN_POINT('',(74.4044084103044,-15.386297623332,299.500004462898));
#529=CARTESIAN_POINT('',(74.4044084103044,-15.386297623332,299.500004462898));
#530=CARTESIAN_POINT('',(74.4044084103044,-15.386297623332,299.500004462898));
#531=CARTESIAN_POINT('Origin',(-15.0386724850792,74.0567832720515,399.192842427461));
#532=CARTESIAN_POINT('',(-15.0386724850792,74.0567832720515,300.));
#533=CARTESIAN_POINT('',(-16.4528860474522,72.6425697096785,300.));
#534=CARTESIAN_POINT('',(-10.334705836171,78.7607499209597,300.));
#535=CARTESIAN_POINT('',(-15.0386724850792,74.0567832720515,299.500004462898));
#536=CARTESIAN_POINT('',(-15.0386724850792,74.0567832720515,399.192842427461));
#537=CARTESIAN_POINT('',(-16.4528860474522,72.6425697096785,299.500004462898));
#538=CARTESIAN_POINT('',(-15.0386724850792,74.0567832720515,299.500004462898));
#539=CARTESIAN_POINT('',(-16.4528860474522,72.6425697096785,399.192842427461));
#540=CARTESIAN_POINT('Origin',(28.2686544002395,27.9210292619866,349.346423445179));
#541=CARTESIAN_POINT('',(71.9769894042577,-15.7873057420315,300.));
#542=CARTESIAN_POINT('',(28.2194048215322,27.9702788406939,300.));
#543=CARTESIAN_POINT('',(71.9769894042577,-15.7873057420315,399.192842427461));
#544=CARTESIAN_POINT('',(71.9769894042577,-15.7873057420315,324.67321172259));
#545=CARTESIAN_POINT('',(-15.6224988311164,71.8121824933426,399.192842427461));
#546=CARTESIAN_POINT('',(72.9901948479314,-16.8005111857051,399.192842427461));
#547=CARTESIAN_POINT('',(-15.6224988311164,71.8121824933425,300.));
#548=CARTESIAN_POINT('',(-15.6224988311164,71.8121824933425,324.67321172259));
#549=CARTESIAN_POINT('',(28.2194048215322,27.9702788406939,300.));
#550=CARTESIAN_POINT('',(-16.4528860474522,72.6425697096785,299.500004462898));
#551=CARTESIAN_POINT('Origin',(-15.0386724850792,74.0567832720515,299.500004462898));
#552=CARTESIAN_POINT('',(-15.0386724850792,74.0567832720515,299.500004462898));
#553=CARTESIAN_POINT('Origin',(74.4044084103044,-15.386297623332,399.192842427461));
#554=CARTESIAN_POINT('',(73.6982551089233,-14.6801443219509,399.192842427461));
#555=CARTESIAN_POINT('',(73.5831946101381,-15.8718304947342,399.192842427461));
#556=CARTESIAN_POINT('',(78.3868182876875,33.8794914291776,399.192842427461));
#557=CARTESIAN_POINT('',(-14.3133086893723,73.3314194763447,399.192842427461));
#558=CARTESIAN_POINT('',(74.4044084103044,-15.386297623332,399.192842427461));
#559=CARTESIAN_POINT('',(-15.6784778663651,73.1949751869876,399.192842427461));
#560=CARTESIAN_POINT('',(24.5345553652946,77.214139137256,399.192842427461));
#561=CARTESIAN_POINT('',(-12.6530638985649,-1.53872308665662,399.192842427461));
#562=CARTESIAN_POINT('',(73.9799275362839,-15.892708121297,399.192842427461));
#563=CARTESIAN_POINT('Origin',(29.6828679626126,29.3352428243598,349.346423445179));
#564=CARTESIAN_POINT('',(73.6982551089233,-14.6801443219509,300.));
#565=CARTESIAN_POINT('',(29.6336183839054,29.384492403067,300.));
#566=CARTESIAN_POINT('',(-14.3133086893723,73.3314194763447,300.));
#567=CARTESIAN_POINT('',(29.6336183839054,29.384492403067,300.));
#568=CARTESIAN_POINT('',(-14.3133086893723,73.3314194763447,324.67321172259));
#569=CARTESIAN_POINT('',(73.6982551089233,-14.6801443219509,324.67321172259));
#570=CARTESIAN_POINT('Origin',(83.1364104669255,83.0712069711216,300.));
#571=CARTESIAN_POINT('',(73.5831946101381,-15.8718304947342,400.));
#572=CARTESIAN_POINT('',(73.5831946101381,-15.8718304947342,300.));
#573=CARTESIAN_POINT('',(83.1364104669255,83.0712069711216,400.));
#574=CARTESIAN_POINT('',(83.1364104669255,83.0712069711216,400.));
#575=CARTESIAN_POINT('',(83.1364104669255,83.0712069711216,300.));
#576=CARTESIAN_POINT('',(83.1364104669255,83.0712069711216,300.));
#577=CARTESIAN_POINT('',(75.8059297206938,7.14912565419783,300.));
#578=CARTESIAN_POINT('Origin',(-13.3551722977039,15.8047405897525,300.));
#579=CARTESIAN_POINT('',(-15.6784778663651,73.1949751869876,400.));
#580=CARTESIAN_POINT('',(-15.6784778663651,73.1949751869876,300.));
#581=CARTESIAN_POINT('',(-13.3551722977039,15.8047405897525,400.));
#582=CARTESIAN_POINT('',(-13.3551722977039,15.8047405897525,400.));
#583=CARTESIAN_POINT('',(-13.3551722977039,15.8047405897525,300.));
#584=CARTESIAN_POINT('',(-13.3551722977039,15.8047405897525,300.));
#585=CARTESIAN_POINT('',(-14.9395853180938,54.9428704017029,300.));
#586=CARTESIAN_POINT('Origin',(38.9923021030144,38.8416752795907,300.));
#587=CARTESIAN_POINT('',(85.8137146643931,85.7575265207757,300.));
#588=CARTESIAN_POINT('',(-18.1750050404962,75.3641868523967,300.));
#589=CARTESIAN_POINT('',(85.8137146643931,85.7575265207757,300.));
#590=CARTESIAN_POINT('',(75.757381655344,-18.3963153477226,300.));
#591=CARTESIAN_POINT('',(75.757381655344,-18.3963153477226,300.));
#592=CARTESIAN_POINT('',(14.2030084844603,-15.1570852972957,300.));
#593=CARTESIAN_POINT('',(14.2030084844603,-15.1570852972957,300.));
#594=CARTESIAN_POINT('',(-15.7219073478163,14.7678305349811,300.));
#595=CARTESIAN_POINT('',(-15.7219073478163,14.7678305349811,300.));
#596=CARTESIAN_POINT('',(-18.1750050404962,75.3641868523967,300.));
#597=CARTESIAN_POINT('',(59.2790147178546,80.6867366331204,300.));
#598=CARTESIAN_POINT('',(15.2517729556018,-12.8022046635532,300.));
#599=CARTESIAN_POINT('',(-6.35349955131419,8.80306784336279,300.));
#600=CARTESIAN_POINT('',(24.1700256792971,-13.2715177396477,300.));
#601=CARTESIAN_POINT('Origin',(15.2517729556018,-12.8022046635532,300.));
#602=CARTESIAN_POINT('',(15.2517729556018,-12.8022046635532,400.));
#603=CARTESIAN_POINT('',(15.2517729556018,-12.8022046635532,400.));
#604=CARTESIAN_POINT('',(15.2517729556018,-12.8022046635532,300.));
#605=CARTESIAN_POINT('Origin',(73.5831946101381,-15.8718304947342,300.));
#606=CARTESIAN_POINT('',(73.5831946101381,-15.8718304947342,400.));
#607=CARTESIAN_POINT('Origin',(-15.6784778663651,73.1949751869876,300.));
#608=CARTESIAN_POINT('',(-15.6784778663651,73.1949751869876,400.));
#609=CARTESIAN_POINT('Origin',(85.8137146643931,85.7575265207757,300.));
#610=CARTESIAN_POINT('',(-18.1750050404962,75.3641868523967,400.));
#611=CARTESIAN_POINT('',(-18.1750050404962,75.3641868523967,300.));
#612=CARTESIAN_POINT('',(85.8137146643931,85.7575265207757,400.));
#613=CARTESIAN_POINT('',(85.8137146643931,85.7575265207757,400.));
#614=CARTESIAN_POINT('',(85.8137146643931,85.7575265207757,300.));
#615=CARTESIAN_POINT('Origin',(75.757381655344,-18.3963153477226,300.));
#616=CARTESIAN_POINT('',(75.757381655344,-18.3963153477226,400.));
#617=CARTESIAN_POINT('',(75.757381655344,-18.3963153477226,400.));
#618=CARTESIAN_POINT('',(75.757381655344,-18.3963153477226,300.));
#619=CARTESIAN_POINT('Origin',(14.2030084844603,-15.1570852972957,300.));
#620=CARTESIAN_POINT('',(14.2030084844603,-15.1570852972957,400.));
#621=CARTESIAN_POINT('',(14.2030084844603,-15.1570852972957,400.));
#622=CARTESIAN_POINT('',(14.2030084844603,-15.1570852972957,300.));
#623=CARTESIAN_POINT('Origin',(-15.7219073478163,14.7678305349811,300.));
#624=CARTESIAN_POINT('',(-15.7219073478163,14.7678305349811,400.));
#625=CARTESIAN_POINT('',(-15.7219073478163,14.7678305349811,400.));
#626=CARTESIAN_POINT('',(-15.7219073478163,14.7678305349811,300.));
#627=CARTESIAN_POINT('Origin',(-18.1750050404962,75.3641868523967,300.));
#628=CARTESIAN_POINT('',(-18.1750050404962,75.3641868523967,400.));
#629=CARTESIAN_POINT('Origin',(33.8193548119485,33.6806055865265,400.));
#630=UNCERTAINTY_MEASURE_WITH_UNIT(LENGTH_MEASURE(0.01),#634,
'DISTANCE_ACCURACY_VALUE',
'Maximum model space distance between geometric entities at asserted c
onnectivities');
#631=UNCERTAINTY_MEASURE_WITH_UNIT(LENGTH_MEASURE(0.01),#634,
'DISTANCE_ACCURACY_VALUE',
'Maximum model space distance between geometric entities at asserted c
onnectivities');
#632=(
GEOMETRIC_REPRESENTATION_CONTEXT(3)
GLOBAL_UNCERTAINTY_ASSIGNED_CONTEXT((#630))
GLOBAL_UNIT_ASSIGNED_CONTEXT((#634,#636,#637))
REPRESENTATION_CONTEXT('','3D')
);
#633=(
GEOMETRIC_REPRESENTATION_CONTEXT(3)
GLOBAL_UNCERTAINTY_ASSIGNED_CONTEXT((#631))
GLOBAL_UNIT_ASSIGNED_CONTEXT((#634,#636,#637))
REPRESENTATION_CONTEXT('','3D')
);
#634=(
LENGTH_UNIT()
NAMED_UNIT(*)
SI_UNIT(.MILLI.,.METRE.)
);
#635=(
LENGTH_UNIT()
NAMED_UNIT(*)
SI_UNIT($,.METRE.)
);
#636=(
NAMED_UNIT(*)
PLANE_ANGLE_UNIT()
SI_UNIT($,.RADIAN.)
);
#637=(
NAMED_UNIT(*)
SI_UNIT($,.STERADIAN.)
SOLID_ANGLE_UNIT()
);
#638=SHAPE_DEFINITION_REPRESENTATION(#639,#640);
#639=PRODUCT_DEFINITION_SHAPE('',$,#642);
#640=SHAPE_REPRESENTATION('',(#410),#632);
#641=PRODUCT_DEFINITION_CONTEXT('part definition',#646,'design');
#642=PRODUCT_DEFINITION('\X2\9C7C5934\X0\Gen1.3S','\X2\9C7C\X0\Gen2',#643,
#641);
#643=PRODUCT_DEFINITION_FORMATION('',$,#648);
#644=PRODUCT_RELATED_PRODUCT_CATEGORY('\X2\9C7C\X0\Gen2','\X2\9C7C\X0\G
en2',(#648));
#645=APPLICATION_PROTOCOL_DEFINITION('international standard',
'automotive_design',2009,#646);
#646=APPLICATION_CONTEXT(
'Core Data for Automotive Mechanical Design Process');
#647=PRODUCT_CONTEXT('part definition',#646,'mechanical');
#648=PRODUCT('\X2\9C7C5934\X0\Gen1.3S','\X2\9C7C\X0\Gen2','STEP AP214',
(#647));
#649=PRESENTATION_STYLE_ASSIGNMENT((#651));
#650=PRESENTATION_STYLE_ASSIGNMENT((#652));
#651=SURFACE_STYLE_USAGE(.BOTH.,#653);
#652=SURFACE_STYLE_USAGE(.BOTH.,#654);
#653=SURFACE_SIDE_STYLE('',(#655));
#654=SURFACE_SIDE_STYLE('',(#656));
#655=SURFACE_STYLE_FILL_AREA(#657);
#656=SURFACE_STYLE_FILL_AREA(#658);
#657=FILL_AREA_STYLE('\X2\94A2\X0\ - \X2\7F0E5149\X0\',(#659));
#658=FILL_AREA_STYLE('Opaque(202,209,238)',(#660));
#659=FILL_AREA_STYLE_COLOUR('\X2\94A2\X0\ - \X2\7F0E5149\X0\',#661);
#660=FILL_AREA_STYLE_COLOUR('Opaque(202,209,238)',#662);
#661=COLOUR_RGB('\X2\94A2\X0\ - \X2\7F0E5149\X0\',0.627450980392157,0.627450980392157,
0.627450980392157);
#662=COLOUR_RGB('Opaque(202,209,238)',0.792156862745098,0.819607843137255,
0.933333333333333);
ENDSEC;
END-ISO-10303-21;
